<svg width="170" height="40" viewBox="0 0 170 40" fill="none" xmlns="http://www.w3.org/2000/svg">
<g clip-path="url(#clip0_59_156)">
<path d="M51.2775 29.3232H63.2295V25.7232H55.5255V12.1632H51.2775V29.3232Z" fill="white"/>
<path d="M70.3105 26.9232C68.6065 26.9232 67.7185 25.4352 67.7185 23.2032C67.7185 20.9712 68.6065 19.4592 70.3105 19.4592C72.0145 19.4592 72.9265 20.9712 72.9265 23.2032C72.9265 25.4352 72.0145 26.9232 70.3105 26.9232ZM70.3345 29.7072C74.2945 29.7072 76.8865 26.8992 76.8865 23.2032C76.8865 19.5072 74.2945 16.6992 70.3345 16.6992C66.3985 16.6992 63.7585 19.5072 63.7585 23.2032C63.7585 26.8992 66.3985 29.7072 70.3345 29.7072Z" fill="white"/>
<path d="M83.7411 33.5708C85.5651 33.5708 87.1731 33.1628 88.2531 32.2028C89.2371 31.3148 89.8851 29.9708 89.8851 28.1228V17.0348H86.1411V18.3548H86.0931C85.3731 17.3228 84.2691 16.6748 82.6371 16.6748C79.5891 16.6748 77.4771 19.2188 77.4771 22.8188C77.4771 26.5868 80.0451 28.6508 82.8051 28.6508C84.2931 28.6508 85.2291 28.0508 85.9491 27.2348H86.0451V28.4588C86.0451 29.9468 85.3491 30.8108 83.6931 30.8108C82.3971 30.8108 81.7491 30.2588 81.5331 29.6108H77.7411C78.1251 32.1788 80.3571 33.5708 83.7411 33.5708ZM83.7171 25.7468C82.2531 25.7468 81.2931 24.5468 81.2931 22.6988C81.2931 20.8268 82.2531 19.6268 83.7171 19.6268C85.3491 19.6268 86.2131 21.0188 86.2131 22.6748C86.2131 24.4028 85.4211 25.7468 83.7171 25.7468Z" fill="white"/>
<path d="M97.5834 26.9232C95.8794 26.9232 94.9914 25.4352 94.9914 23.2032C94.9914 20.9712 95.8794 19.4592 97.5834 19.4592C99.2874 19.4592 100.199 20.9712 100.199 23.2032C100.199 25.4352 99.2874 26.9232 97.5834 26.9232ZM97.6074 29.7072C101.567 29.7072 104.159 26.8992 104.159 23.2032C104.159 19.5072 101.567 16.6992 97.6074 16.6992C93.6714 16.6992 91.0314 19.5072 91.0314 23.2032C91.0314 26.8992 93.6714 29.7072 97.6074 29.7072Z" fill="white"/>
<path d="M105.302 29.3231H109.214V17.0351H105.302V29.3231ZM105.302 15.3311H109.214V12.1631H105.302V15.3311Z" fill="white"/>
<path d="M110.911 33.3788H114.823V28.0508H114.871C115.639 29.0828 116.767 29.7068 118.351 29.7068C121.567 29.7068 123.703 27.1628 123.703 23.1788C123.703 19.4828 121.711 16.6748 118.447 16.6748C116.767 16.6748 115.567 17.4188 114.727 18.5228H114.655V17.0348H110.911V33.3788ZM117.343 26.6828C115.663 26.6828 114.703 25.3148 114.703 23.3228C114.703 21.3308 115.567 19.8188 117.271 19.8188C118.951 19.8188 119.743 21.2108 119.743 23.3228C119.743 25.4108 118.831 26.6828 117.343 26.6828Z" fill="white"/>
<path d="M130.072 29.7068C133.288 29.7068 135.664 28.3148 135.664 25.6268C135.664 22.4828 133.12 21.9308 130.96 21.5708C129.4 21.2828 128.008 21.1628 128.008 20.2988C128.008 19.5308 128.752 19.1708 129.712 19.1708C130.792 19.1708 131.536 19.5068 131.68 20.6108H135.28C135.088 18.1868 133.216 16.6748 129.736 16.6748C126.832 16.6748 124.432 18.0188 124.432 20.6108C124.432 23.4908 126.712 24.0668 128.848 24.4268C130.48 24.7148 131.968 24.8348 131.968 25.9388C131.968 26.7308 131.224 27.1628 130.048 27.1628C128.752 27.1628 127.936 26.5628 127.792 25.3388H124.096C124.216 28.0508 126.472 29.7068 130.072 29.7068Z" fill="white"/>
<path d="M140.978 29.6832C142.682 29.6832 143.762 29.0112 144.65 27.8112H144.722V29.3232H148.466V17.0352H144.554V23.8992C144.554 25.3632 143.738 26.3712 142.394 26.3712C141.146 26.3712 140.546 25.6272 140.546 24.2832V17.0352H136.658V25.0992C136.658 27.8352 138.146 29.6832 140.978 29.6832Z" fill="white"/>
<path d="M150.168 29.3228H154.08V22.4348C154.08 20.9708 154.8 19.9388 156.024 19.9388C157.2 19.9388 157.752 20.7068 157.752 22.0268V29.3228H161.664V22.4348C161.664 20.9708 162.36 19.9388 163.608 19.9388C164.784 19.9388 165.336 20.7068 165.336 22.0268V29.3228H169.248V21.3308C169.248 18.5708 167.856 16.6748 165.072 16.6748C163.488 16.6748 162.168 17.3468 161.208 18.8348H161.16C160.536 17.5148 159.312 16.6748 157.704 16.6748C155.928 16.6748 154.752 17.5148 153.984 18.7868H153.912V17.0348H150.168V29.3228Z" fill="white"/>
<path fill-rule="evenodd" clip-rule="evenodd" d="M20.1014 40.3232C31.1472 40.3232 40.1014 31.3689 40.1014 20.3232C40.1014 9.27754 31.1472 0.323242 20.1014 0.323242C9.05573 0.323242 0.10144 9.27754 0.10144 20.3232C0.10144 31.3689 9.05573 40.3232 20.1014 40.3232ZM23.1884 15.7758C24.8932 14.0709 24.8932 11.3068 23.1884 9.6019C21.4835 7.89702 18.7194 7.89702 17.0145 9.6019C15.3097 11.3068 15.3097 14.0709 17.0145 15.7758L20.1014 18.8627L23.1884 15.7758ZM24.6489 23.4102C26.3538 25.1151 29.1179 25.1151 30.8228 23.4102C32.5276 21.7053 32.5276 18.9412 30.8228 17.2363C29.1179 15.5315 26.3538 15.5315 24.6489 17.2363L21.562 20.3233L24.6489 23.4102ZM23.1884 31.0446C24.8932 29.3397 24.8932 26.5756 23.1884 24.8707L20.1014 21.7838L17.0145 24.8707C15.3097 26.5756 15.3097 29.3397 17.0145 31.0446C18.7194 32.7495 21.4835 32.7495 23.1884 31.0446ZM9.38007 23.4102C7.67523 21.7053 7.67523 18.9412 9.38007 17.2363C11.085 15.5315 13.8491 15.5315 15.554 17.2363L18.6409 20.3233L15.554 23.4102C13.8491 25.1151 11.085 25.1151 9.38007 23.4102Z" fill="white"/>
</g>
<defs>
<clipPath id="clip0_59_156">
<rect width="170" height="40" fill="white"/>
</clipPath>
</defs>
</svg>
