<svg width="167" height="40" viewBox="0 0 167 40" fill="none" xmlns="http://www.w3.org/2000/svg">
<g clip-path="url(#clip0_59_168)">
<path d="M48.6306 28.7936H60.5826V25.1936H52.8786V11.6336H48.6306V28.7936Z" fill="white"/>
<path d="M67.6638 26.3939C65.9598 26.3939 65.0718 24.9059 65.0718 22.6739C65.0718 20.4419 65.9598 18.9299 67.6638 18.9299C69.3678 18.9299 70.2798 20.4419 70.2798 22.6739C70.2798 24.9059 69.3678 26.3939 67.6638 26.3939ZM67.6878 29.1779C71.6478 29.1779 74.2398 26.3699 74.2398 22.6739C74.2398 18.9779 71.6478 16.1699 67.6878 16.1699C63.7518 16.1699 61.1118 18.9779 61.1118 22.6739C61.1118 26.3699 63.7518 29.1779 67.6878 29.1779Z" fill="white"/>
<path d="M81.0943 33.0416C82.9183 33.0416 84.5263 32.6336 85.6063 31.6736C86.5903 30.7856 87.2383 29.4416 87.2383 27.5936V16.5056H83.4943V17.8256H83.4463C82.7263 16.7936 81.6223 16.1456 79.9903 16.1456C76.9423 16.1456 74.8303 18.6896 74.8303 22.2896C74.8303 26.0576 77.3983 28.1216 80.1583 28.1216C81.6463 28.1216 82.5823 27.5216 83.3023 26.7056H83.3983V27.9296C83.3983 29.4176 82.7023 30.2816 81.0463 30.2816C79.7503 30.2816 79.1023 29.7296 78.8863 29.0816H75.0943C75.4783 31.6496 77.7103 33.0416 81.0943 33.0416ZM81.0703 25.2176C79.6063 25.2176 78.6463 24.0176 78.6463 22.1696C78.6463 20.2976 79.6063 19.0976 81.0703 19.0976C82.7023 19.0976 83.5663 20.4896 83.5663 22.1456C83.5663 23.8736 82.7743 25.2176 81.0703 25.2176Z" fill="white"/>
<path d="M94.9368 26.3939C93.2328 26.3939 92.3448 24.9059 92.3448 22.6739C92.3448 20.4419 93.2328 18.9299 94.9368 18.9299C96.6408 18.9299 97.5528 20.4419 97.5528 22.6739C97.5528 24.9059 96.6408 26.3939 94.9368 26.3939ZM94.9608 29.1779C98.9208 29.1779 101.513 26.3699 101.513 22.6739C101.513 18.9779 98.9208 16.1699 94.9608 16.1699C91.0248 16.1699 88.3848 18.9779 88.3848 22.6739C88.3848 26.3699 91.0248 29.1779 94.9608 29.1779Z" fill="white"/>
<path d="M102.655 28.7936H106.567V16.5056H102.655V28.7936ZM102.655 14.8016H106.567V11.6336H102.655V14.8016Z" fill="white"/>
<path d="M108.264 32.8496H112.176V27.5216H112.224C112.992 28.5536 114.12 29.1776 115.704 29.1776C118.92 29.1776 121.056 26.6336 121.056 22.6496C121.056 18.9536 119.064 16.1456 115.8 16.1456C114.12 16.1456 112.92 16.8896 112.08 17.9936H112.008V16.5056H108.264V32.8496ZM114.696 26.1536C113.016 26.1536 112.056 24.7856 112.056 22.7936C112.056 20.8016 112.92 19.2896 114.624 19.2896C116.304 19.2896 117.096 20.6816 117.096 22.7936C117.096 24.8816 116.184 26.1536 114.696 26.1536Z" fill="white"/>
<path d="M127.426 29.1776C130.642 29.1776 133.018 27.7856 133.018 25.0976C133.018 21.9536 130.474 21.4016 128.314 21.0416C126.754 20.7536 125.362 20.6336 125.362 19.7696C125.362 19.0016 126.106 18.6416 127.066 18.6416C128.146 18.6416 128.89 18.9776 129.034 20.0816H132.634C132.442 17.6576 130.57 16.1456 127.09 16.1456C124.186 16.1456 121.786 17.4896 121.786 20.0816C121.786 22.9616 124.066 23.5376 126.202 23.8976C127.834 24.1856 129.322 24.3056 129.322 25.4096C129.322 26.2016 128.578 26.6336 127.402 26.6336C126.106 26.6336 125.29 26.0336 125.146 24.8096H121.45C121.57 27.5216 123.826 29.1776 127.426 29.1776Z" fill="white"/>
<path d="M138.331 29.1539C140.035 29.1539 141.115 28.4819 142.003 27.2819H142.075V28.7939H145.819V16.5059H141.907V23.3699C141.907 24.8339 141.091 25.8419 139.747 25.8419C138.499 25.8419 137.899 25.0979 137.899 23.7539V16.5059H134.011V24.5699C134.011 27.3059 135.499 29.1539 138.331 29.1539Z" fill="white"/>
<path d="M147.521 28.7936H151.433V21.9056C151.433 20.4416 152.153 19.4096 153.377 19.4096C154.553 19.4096 155.105 20.1776 155.105 21.4976V28.7936H159.017V21.9056C159.017 20.4416 159.713 19.4096 160.961 19.4096C162.137 19.4096 162.689 20.1776 162.689 21.4976V28.7936H166.601V20.8016C166.601 18.0416 165.209 16.1456 162.425 16.1456C160.841 16.1456 159.521 16.8176 158.561 18.3056H158.513C157.889 16.9856 156.665 16.1456 155.057 16.1456C153.281 16.1456 152.105 16.9856 151.337 18.2576H151.265V16.5056H147.521V28.7936Z" fill="white"/>
<path fill-rule="evenodd" clip-rule="evenodd" d="M8.65429 3.89181C7.22363 4.89217 5.92993 6.07492 4.80688 7.40634C9.39618 6.98027 15.2267 7.67599 21.9959 11.0606C29.2245 14.6748 35.0453 14.797 39.0963 14.0156C38.7287 12.9027 38.2659 11.8331 37.7178 10.8163C33.0805 11.3054 27.1355 10.658 20.2071 7.19392C15.8075 4.99412 11.9293 4.08795 8.65429 3.89181ZM35.0089 6.96059C31.3468 2.86894 26.0249 0.293945 20.1015 0.293945C18.362 0.293945 16.6742 0.516052 15.0652 0.933425C17.2444 1.52803 19.5594 2.39793 21.9959 3.61621C27.0685 6.15247 31.4479 6.9691 35.0089 6.96059ZM39.9624 17.922C35.0684 18.8884 28.3103 18.6899 20.2071 14.6383C12.6315 10.8505 6.60199 10.8982 2.53546 11.8019C2.32556 11.8485 2.1206 11.8975 1.92059 11.9485C1.38818 13.1064 0.963196 14.324 0.658264 15.5884C0.983948 15.5014 1.32049 15.4187 1.66772 15.3415C6.60113 14.2452 13.5716 14.2928 21.9959 18.505C29.5716 22.2928 35.6011 22.2451 39.6677 21.3414C39.807 21.3105 39.9443 21.2785 40.0793 21.2455C40.0941 20.9302 40.1015 20.6129 40.1015 20.2939C40.1015 19.4914 40.0543 18.6999 39.9624 17.922ZM39.4263 25.4662C34.5798 26.3135 28.0185 25.9883 20.2071 22.0827C12.6315 18.2949 6.60199 18.3426 2.53546 19.2463C1.63281 19.4468 0.820801 19.6911 0.104493 19.949C0.10254 20.0637 0.101562 20.1787 0.101562 20.2939C0.101562 31.3396 9.05585 40.2939 20.1015 40.2939C29.3586 40.2939 37.1468 34.0048 39.4263 25.4662Z" fill="white"/>
</g>
<defs>
<clipPath id="clip0_59_168">
<rect width="167" height="40" fill="white"/>
</clipPath>
</defs>
</svg>
