<svg width="168" height="40" viewBox="0 0 168 40" fill="none" xmlns="http://www.w3.org/2000/svg">
<g clip-path="url(#clip0_59_192)">
<path d="M49.2776 28.952H61.2296V25.352H53.5256V11.792H49.2776V28.952Z" fill="white"/>
<path d="M68.3108 26.5521C66.6068 26.5521 65.7188 25.0641 65.7188 22.8321C65.7188 20.6001 66.6068 19.0881 68.3108 19.0881C70.0148 19.0881 70.9268 20.6001 70.9268 22.8321C70.9268 25.0641 70.0148 26.5521 68.3108 26.5521ZM68.3348 29.3361C72.2948 29.3361 74.8868 26.5281 74.8868 22.8321C74.8868 19.1361 72.2948 16.3281 68.3348 16.3281C64.3988 16.3281 61.7588 19.1361 61.7588 22.8321C61.7588 26.5281 64.3988 29.3361 68.3348 29.3361Z" fill="white"/>
<path d="M81.7411 33.2007C83.5651 33.2007 85.1731 32.7927 86.2531 31.8327C87.2371 30.9447 87.8851 29.6007 87.8851 27.7527V16.6647H84.1411V17.9847H84.0931C83.3731 16.9527 82.2691 16.3047 80.6371 16.3047C77.5891 16.3047 75.4771 18.8487 75.4771 22.4487C75.4771 26.2167 78.0451 28.2807 80.8051 28.2807C82.2931 28.2807 83.2291 27.6807 83.9491 26.8647H84.0451V28.0887C84.0451 29.5767 83.3491 30.4407 81.6931 30.4407C80.3971 30.4407 79.7491 29.8887 79.5331 29.2407H75.7411C76.1251 31.8087 78.3571 33.2007 81.7411 33.2007ZM81.7171 25.3767C80.2531 25.3767 79.2931 24.1767 79.2931 22.3287C79.2931 20.4567 80.2531 19.2567 81.7171 19.2567C83.3491 19.2567 84.2131 20.6487 84.2131 22.3047C84.2131 24.0327 83.4211 25.3767 81.7171 25.3767Z" fill="white"/>
<path d="M95.5833 26.5521C93.8793 26.5521 92.9912 25.0641 92.9912 22.8321C92.9912 20.6001 93.8793 19.0881 95.5833 19.0881C97.2873 19.0881 98.1992 20.6001 98.1992 22.8321C98.1992 25.0641 97.2873 26.5521 95.5833 26.5521ZM95.6072 29.3361C99.5672 29.3361 102.159 26.5281 102.159 22.8321C102.159 19.1361 99.5672 16.3281 95.6072 16.3281C91.6712 16.3281 89.0312 19.1361 89.0312 22.8321C89.0312 26.5281 91.6712 29.3361 95.6072 29.3361Z" fill="white"/>
<path d="M103.302 28.952H107.214V16.664H103.302V28.952ZM103.302 14.96H107.214V11.792H103.302V14.96Z" fill="white"/>
<path d="M108.911 33.0087H112.823V27.6807H112.871C113.639 28.7127 114.767 29.3367 116.351 29.3367C119.567 29.3367 121.703 26.7927 121.703 22.8087C121.703 19.1127 119.711 16.3047 116.447 16.3047C114.767 16.3047 113.567 17.0487 112.727 18.1527H112.655V16.6647H108.911V33.0087ZM115.343 26.3127C113.663 26.3127 112.703 24.9447 112.703 22.9527C112.703 20.9607 113.567 19.4487 115.271 19.4487C116.951 19.4487 117.743 20.8407 117.743 22.9527C117.743 25.0407 116.831 26.3127 115.343 26.3127Z" fill="white"/>
<path d="M128.072 29.3367C131.288 29.3367 133.664 27.9447 133.664 25.2567C133.664 22.1127 131.12 21.5607 128.96 21.2007C127.4 20.9127 126.008 20.7927 126.008 19.9287C126.008 19.1607 126.752 18.8007 127.712 18.8007C128.792 18.8007 129.536 19.1367 129.68 20.2407H133.28C133.088 17.8167 131.216 16.3047 127.736 16.3047C124.832 16.3047 122.432 17.6487 122.432 20.2407C122.432 23.1207 124.712 23.6967 126.848 24.0567C128.48 24.3447 129.968 24.4647 129.968 25.5687C129.968 26.3607 129.224 26.7927 128.048 26.7927C126.752 26.7927 125.936 26.1927 125.792 24.9687H122.096C122.216 27.6807 124.472 29.3367 128.072 29.3367Z" fill="white"/>
<path d="M138.978 29.3121C140.682 29.3121 141.762 28.6401 142.65 27.4401H142.722V28.9521H146.466V16.6641H142.554V23.5281C142.554 24.9921 141.738 26.0001 140.394 26.0001C139.146 26.0001 138.546 25.2561 138.546 23.9121V16.6641H134.658V24.7281C134.658 27.4641 136.146 29.3121 138.978 29.3121Z" fill="white"/>
<path d="M148.168 28.9527H152.08V22.0647C152.08 20.6007 152.8 19.5687 154.024 19.5687C155.2 19.5687 155.752 20.3367 155.752 21.6567V28.9527H159.664V22.0647C159.664 20.6007 160.36 19.5687 161.608 19.5687C162.784 19.5687 163.336 20.3367 163.336 21.6567V28.9527H167.248V20.9607C167.248 18.2007 165.856 16.3047 163.072 16.3047C161.488 16.3047 160.168 16.9767 159.208 18.4647H159.16C158.536 17.1447 157.312 16.3047 155.704 16.3047C153.928 16.3047 152.752 17.1447 151.984 18.4167H151.912V16.6647H148.168V28.9527Z" fill="white"/>
<path d="M25.4099 1.97689L21.4769 0.923035L18.1625 13.2926L15.1702 2.12527L11.2371 3.17913L14.4701 15.2446L6.41746 7.19201L3.53827 10.0712L12.371 18.904L1.37124 15.9566L0.317383 19.8896L12.336 23.11C12.1984 22.5165 12.1256 21.8981 12.1256 21.2627C12.1256 16.7651 15.7716 13.1191 20.2692 13.1191C24.7668 13.1191 28.4128 16.7651 28.4128 21.2627C28.4128 21.894 28.3409 22.5086 28.205 23.0986L39.1277 26.0253L40.1815 22.0923L28.1151 18.8591L39.1156 15.9115L38.0617 11.9785L25.9958 15.2115L34.0484 7.15895L31.1692 4.27976L22.459 12.99L25.4099 1.97689Z" fill="white"/>
<path d="M28.1944 23.1444C27.8572 24.57 27.1453 25.8507 26.1685 26.8768L34.0815 34.7899L36.9607 31.9107L28.1944 23.1444Z" fill="white"/>
<path d="M26.0884 26.96C25.0998 27.9697 23.8505 28.7232 22.4495 29.1115L25.3289 39.8575L29.2619 38.8036L26.0884 26.96Z" fill="white"/>
<path d="M22.3026 29.1504C21.6526 29.3175 20.9713 29.4063 20.2692 29.4063C19.517 29.4063 18.7886 29.3043 18.0971 29.1134L15.2151 39.8692L19.1481 40.923L22.3026 29.1504Z" fill="white"/>
<path d="M17.9581 29.0737C16.5785 28.6661 15.3514 27.903 14.383 26.8904L6.45056 34.8229L9.32975 37.7021L17.9581 29.0737Z" fill="white"/>
<path d="M14.3168 26.82C13.365 25.801 12.6717 24.5374 12.3417 23.1338L1.3833 26.0701L2.43715 30.0031L14.3168 26.82Z" fill="white"/>
</g>
<defs>
<clipPath id="clip0_59_192">
<rect width="168" height="40" fill="white"/>
</clipPath>
</defs>
</svg>
