<svg width="170" height="40" viewBox="0 0 170 40" fill="none" xmlns="http://www.w3.org/2000/svg">
<g clip-path="url(#clip0_59_209)">
<path d="M51.8604 28.1375H63.8124V24.5375H56.1084V10.9775H51.8604V28.1375Z" fill="white"/>
<path d="M70.8933 25.7377C69.1893 25.7377 68.3013 24.2497 68.3013 22.0177C68.3013 19.7857 69.1893 18.2737 70.8933 18.2737C72.5973 18.2737 73.5093 19.7857 73.5093 22.0177C73.5093 24.2497 72.5973 25.7377 70.8933 25.7377ZM70.9173 28.5217C74.8773 28.5217 77.4693 25.7137 77.4693 22.0177C77.4693 18.3217 74.8773 15.5137 70.9173 15.5137C66.9813 15.5137 64.3413 18.3217 64.3413 22.0177C64.3413 25.7137 66.9813 28.5217 70.9173 28.5217Z" fill="white"/>
<path d="M84.3238 32.386C86.1478 32.386 87.7558 31.978 88.8358 31.018C89.8198 30.13 90.4678 28.786 90.4678 26.938V15.85H86.7238V17.17H86.6758C85.9558 16.138 84.8518 15.49 83.2198 15.49C80.1718 15.49 78.0598 18.034 78.0598 21.634C78.0598 25.402 80.6278 27.466 83.3878 27.466C84.8758 27.466 85.8118 26.866 86.5318 26.05H86.6278V27.274C86.6278 28.762 85.9318 29.626 84.2758 29.626C82.9798 29.626 82.3318 29.074 82.1158 28.426H78.3238C78.7078 30.994 80.9398 32.386 84.3238 32.386ZM84.2998 24.562C82.8358 24.562 81.8758 23.362 81.8758 21.514C81.8758 19.642 82.8358 18.442 84.2998 18.442C85.9318 18.442 86.7958 19.834 86.7958 21.49C86.7958 23.218 86.0038 24.562 84.2998 24.562Z" fill="white"/>
<path d="M98.1663 25.7377C96.4623 25.7377 95.5743 24.2497 95.5743 22.0177C95.5743 19.7857 96.4623 18.2737 98.1663 18.2737C99.8703 18.2737 100.782 19.7857 100.782 22.0177C100.782 24.2497 99.8703 25.7377 98.1663 25.7377ZM98.1903 28.5217C102.15 28.5217 104.742 25.7137 104.742 22.0177C104.742 18.3217 102.15 15.5137 98.1903 15.5137C94.2543 15.5137 91.6143 18.3217 91.6143 22.0177C91.6143 25.7137 94.2543 28.5217 98.1903 28.5217Z" fill="white"/>
<path d="M105.884 28.1375H109.796V15.8495H105.884V28.1375ZM105.884 14.1455H109.796V10.9775H105.884V14.1455Z" fill="white"/>
<path d="M111.494 32.194H115.406V26.866H115.454C116.222 27.898 117.35 28.522 118.934 28.522C122.15 28.522 124.286 25.978 124.286 21.994C124.286 18.298 122.294 15.49 119.03 15.49C117.35 15.49 116.15 16.234 115.31 17.338H115.238V15.85H111.494V32.194ZM117.926 25.498C116.246 25.498 115.286 24.13 115.286 22.138C115.286 20.146 116.15 18.634 117.854 18.634C119.534 18.634 120.326 20.026 120.326 22.138C120.326 24.226 119.414 25.498 117.926 25.498Z" fill="white"/>
<path d="M130.655 28.522C133.871 28.522 136.247 27.13 136.247 24.442C136.247 21.298 133.703 20.746 131.543 20.386C129.983 20.098 128.591 19.978 128.591 19.114C128.591 18.346 129.335 17.986 130.295 17.986C131.375 17.986 132.119 18.322 132.263 19.426H135.863C135.671 17.002 133.799 15.49 130.319 15.49C127.415 15.49 125.015 16.834 125.015 19.426C125.015 22.306 127.295 22.882 129.431 23.242C131.063 23.53 132.551 23.65 132.551 24.754C132.551 25.546 131.807 25.978 130.631 25.978C129.335 25.978 128.519 25.378 128.375 24.154H124.679C124.799 26.866 127.055 28.522 130.655 28.522Z" fill="white"/>
<path d="M141.561 28.4976C143.265 28.4976 144.345 27.8256 145.233 26.6256H145.305V28.1376H149.049V15.8496H145.137V22.7136C145.137 24.1776 144.321 25.1856 142.977 25.1856C141.729 25.1856 141.129 24.4416 141.129 23.0976V15.8496H137.241V23.9136C137.241 26.6496 138.729 28.4976 141.561 28.4976Z" fill="white"/>
<path d="M150.75 28.138H154.662V21.25C154.662 19.786 155.382 18.754 156.606 18.754C157.782 18.754 158.334 19.522 158.334 20.842V28.138H162.246V21.25C162.246 19.786 162.942 18.754 164.19 18.754C165.366 18.754 165.918 19.522 165.918 20.842V28.138H169.83V20.146C169.83 17.386 168.438 15.49 165.654 15.49C164.07 15.49 162.75 16.162 161.79 17.65H161.742C161.118 16.33 159.894 15.49 158.286 15.49C156.51 15.49 155.334 16.33 154.566 17.602H154.494V15.85H150.75V28.138Z" fill="white"/>
<path fill-rule="evenodd" clip-rule="evenodd" d="M20.6841 40.1377C31.7298 40.1377 40.6841 31.1834 40.6841 20.1377C40.6841 9.092 31.7298 0.137695 20.6841 0.137695C9.63837 0.137695 0.684082 9.092 0.684082 20.1377C0.684082 31.1834 9.63837 40.1377 20.6841 40.1377ZM26.9234 9.45453C27.2271 8.37574 26.1802 7.73782 25.2241 8.41899L11.8772 17.9273C10.8403 18.666 11.0034 20.1377 12.1222 20.1377H15.6368V20.1105H22.4866L16.9053 22.0798L14.4448 30.8209C14.1411 31.8997 15.1879 32.5376 16.1441 31.8564L29.491 22.3482C30.5279 21.6095 30.3647 20.1377 29.246 20.1377H23.9162L26.9234 9.45453Z" fill="white"/>
</g>
<defs>
<clipPath id="clip0_59_209">
<rect width="170" height="40" fill="white"/>
</clipPath>
</defs>
</svg>
