<svg width="40" height="40" viewBox="0 0 40 40" fill="none" xmlns="http://www.w3.org/2000/svg">
<g clip-path="url(#clip0_119_1675)">
<path d="M12.8571 21.4285H9.99996C8.42201 21.4285 7.14282 22.7077 7.14282 24.2856V35.7142C7.14282 37.2921 8.42201 38.5713 9.99996 38.5713H12.8571C14.4351 38.5713 15.7143 37.2921 15.7143 35.7142V24.2856C15.7143 22.7077 14.4351 21.4285 12.8571 21.4285Z" stroke="#4185DD" stroke-width="1.5" stroke-linecap="round" stroke-linejoin="round"/>
<path d="M29.9999 21.4285H27.1428C25.5648 21.4285 24.2856 22.7077 24.2856 24.2856V35.7142C24.2856 37.2921 25.5648 38.5713 27.1428 38.5713H29.9999C31.5779 38.5713 32.8571 37.2921 32.8571 35.7142V24.2856C32.8571 22.7077 31.5779 21.4285 29.9999 21.4285Z" stroke="#4185DD" stroke-width="1.5" stroke-linecap="round" stroke-linejoin="round"/>
<path d="M1.42847 27.1428V19.9999C1.42847 15.0744 3.38509 10.3507 6.86791 6.86791C10.3507 3.38509 15.0744 1.42847 19.9999 1.42847C24.9253 1.42847 29.6491 3.38509 33.1319 6.86791C36.6147 10.3507 38.5713 15.0744 38.5713 19.9999V27.1428" stroke="#4185DD" stroke-width="1.5" stroke-linecap="round" stroke-linejoin="round"/>
</g>
<defs>
<clipPath id="clip0_119_1675">
<rect width="40" height="40" fill="white"/>
</clipPath>
</defs>
</svg>
