<svg width="40" height="40" viewBox="0 0 40 40" fill="none" xmlns="http://www.w3.org/2000/svg">
<g clip-path="url(#clip0_119_1662)">
<path d="M9.28561 17.1428C13.625 17.1428 17.1428 13.625 17.1428 9.28561C17.1428 4.94623 13.625 1.42847 9.28561 1.42847C4.94623 1.42847 1.42847 4.94623 1.42847 9.28561C1.42847 13.625 4.94623 17.1428 9.28561 17.1428Z" stroke="#4185DD" stroke-width="1.5" stroke-linecap="round" stroke-linejoin="round"/>
<path d="M30.7141 17.1428C35.0535 17.1428 38.5712 13.625 38.5712 9.28561C38.5712 4.94623 35.0535 1.42847 30.7141 1.42847C26.3747 1.42847 22.8569 4.94623 22.8569 9.28561C22.8569 13.625 26.3747 17.1428 30.7141 17.1428Z" stroke="#4185DD" stroke-width="1.5" stroke-linecap="round" stroke-linejoin="round"/>
<path d="M9.28561 38.5712C13.625 38.5712 17.1428 35.0535 17.1428 30.7141C17.1428 26.3747 13.625 22.8569 9.28561 22.8569C4.94623 22.8569 1.42847 26.3747 1.42847 30.7141C1.42847 35.0535 4.94623 38.5712 9.28561 38.5712Z" stroke="#4185DD" stroke-width="1.5" stroke-linecap="round" stroke-linejoin="round"/>
<path d="M30.7141 38.5712C35.0535 38.5712 38.5712 35.0535 38.5712 30.7141C38.5712 26.3747 35.0535 22.8569 30.7141 22.8569C26.3747 22.8569 22.8569 26.3747 22.8569 30.7141C22.8569 35.0535 26.3747 38.5712 30.7141 38.5712Z" stroke="#4185DD" stroke-width="1.5" stroke-linecap="round" stroke-linejoin="round"/>
</g>
<defs>
<clipPath id="clip0_119_1662">
<rect width="40" height="40" fill="white"/>
</clipPath>
</defs>
</svg>
