<svg width="50" height="50" viewBox="0 0 50 50" fill="none" xmlns="http://www.w3.org/2000/svg">
<path d="M33.9285 5.35693H39.2857C40.2329 5.35693 41.1413 5.73321 41.8111 6.40298C42.4808 7.07275 42.8571 7.98116 42.8571 8.92836V44.6426C42.8571 45.5898 42.4808 46.4983 41.8111 47.168C41.1413 47.8378 40.2329 48.2141 39.2857 48.2141H10.7143C9.76705 48.2141 8.85864 47.8378 8.18887 47.168C7.5191 46.4983 7.14282 45.5898 7.14282 44.6426V8.92836C7.14282 7.98116 7.5191 7.07275 8.18887 6.40298C8.85864 5.73321 9.76705 5.35693 10.7143 5.35693H16.0714" stroke="#4185DD" stroke-width="1.5" stroke-linecap="round" stroke-linejoin="round"/>
<path d="M30.3571 1.78564H19.6428C17.6704 1.78564 16.0714 3.38463 16.0714 5.35707V7.14279C16.0714 9.11523 17.6704 10.7142 19.6428 10.7142H30.3571C32.3296 10.7142 33.9286 9.11523 33.9286 7.14279V5.35707C33.9286 3.38463 32.3296 1.78564 30.3571 1.78564Z" stroke="#4185DD" stroke-width="1.5" stroke-linecap="round" stroke-linejoin="round"/>
<path d="M16.0714 19.6426H33.9286" stroke="#4185DD" stroke-width="1.5" stroke-linecap="round" stroke-linejoin="round"/>
<path d="M16.0714 28.5713H33.9286" stroke="#4185DD" stroke-width="1.5" stroke-linecap="round" stroke-linejoin="round"/>
<path d="M16.0714 37.5H33.9286" stroke="#4185DD" stroke-width="1.5" stroke-linecap="round" stroke-linejoin="round"/>
</svg>
