<svg width="200" height="40" viewBox="0 0 200 40" fill="none" xmlns="http://www.w3.org/2000/svg">
<g clip-path="url(#clip0_193_215)">
<path d="M60.0908 30.2974V9.9375H63.9301V26.8072H73.2374V30.2974H60.0908Z" fill="white"/>
<path d="M81.5271 30.7047C80.0922 30.7047 78.8027 30.4139 77.6587 29.8321C76.5146 29.2505 75.613 28.407 74.9537 27.3017C74.2945 26.1965 73.9648 24.8682 73.9648 23.317V22.8516C73.9648 21.3004 74.2945 19.9721 74.9537 18.8669C75.613 17.7616 76.5146 16.9181 77.6587 16.3364C78.8027 15.7547 80.0922 15.4639 81.5271 15.4639C82.962 15.4639 84.2515 15.7547 85.3955 16.3364C86.5395 16.9181 87.4411 17.7616 88.1005 18.8669C88.7597 19.9721 89.0893 21.3004 89.0893 22.8516V23.317C89.0893 24.8682 88.7597 26.1965 88.1005 27.3017C87.4411 28.407 86.5395 29.2505 85.3955 29.8321C84.2515 30.4139 82.962 30.7047 81.5271 30.7047ZM81.5271 27.4471C82.6517 27.4471 83.5825 27.0884 84.3193 26.371C85.0561 25.6341 85.4246 24.587 85.4246 23.2297V22.9389C85.4246 21.5815 85.0561 20.5441 84.3193 19.8266C83.6018 19.0899 82.6711 18.7214 81.5271 18.7214C80.4025 18.7214 79.4717 19.0899 78.7348 19.8266C77.998 20.5441 77.6296 21.5815 77.6296 22.9389V23.2297C77.6296 24.587 77.998 25.6341 78.7348 26.371C79.4717 27.0884 80.4025 27.4471 81.5271 27.4471Z" fill="white"/>
<path d="M90.4648 23.1425V22.6771C90.4648 21.1646 90.7653 19.8751 91.3665 18.8086C91.9676 17.7229 92.7626 16.8987 93.7515 16.3364C94.7598 15.7547 95.8553 15.4639 97.0382 15.4639C98.3567 15.4639 99.3553 15.6965 100.034 16.1619C100.713 16.6272 101.207 17.112 101.517 17.6161H102.041V15.871H105.648V32.857C105.648 33.846 105.357 34.6312 104.775 35.213C104.193 35.8141 103.418 36.1146 102.448 36.1146H92.7917V32.9152H101.168C101.711 32.9152 101.983 32.6244 101.983 32.0426V28.2906H101.459C101.265 28.6009 100.994 28.9207 100.645 29.2505C100.296 29.5606 99.8305 29.8225 99.2487 30.0357C98.667 30.249 97.9302 30.3557 97.0382 30.3557C95.8553 30.3557 94.7598 30.0745 93.7515 29.5122C92.7626 28.9305 91.9676 28.1064 91.3665 27.0399C90.7653 25.9541 90.4648 24.6549 90.4648 23.1425ZM98.0853 27.1562C99.21 27.1562 100.15 26.7975 100.907 26.0801C101.663 25.3626 102.041 24.3544 102.041 23.0552V22.7644C102.041 21.4457 101.663 20.4375 100.907 19.7394C100.17 19.022 99.2293 18.6632 98.0853 18.6632C96.9606 18.6632 96.0202 19.022 95.264 19.7394C94.5077 20.4375 94.1296 21.4457 94.1296 22.7644V23.0552C94.1296 24.3544 94.5077 25.3626 95.264 26.0801C96.0202 26.7975 96.9606 27.1562 98.0853 27.1562Z" fill="white"/>
<path d="M115.266 30.7047C113.832 30.7047 112.542 30.4139 111.398 29.8321C110.254 29.2505 109.352 28.407 108.693 27.3017C108.034 26.1965 107.704 24.8682 107.704 23.317V22.8516C107.704 21.3004 108.034 19.9721 108.693 18.8669C109.352 17.7616 110.254 16.9181 111.398 16.3364C112.542 15.7547 113.832 15.4639 115.266 15.4639C116.701 15.4639 117.991 15.7547 119.135 16.3364C120.279 16.9181 121.18 17.7616 121.84 18.8669C122.499 19.9721 122.829 21.3004 122.829 22.8516V23.317C122.829 24.8682 122.499 26.1965 121.84 27.3017C121.18 28.407 120.279 29.2505 119.135 29.8321C117.991 30.4139 116.701 30.7047 115.266 30.7047ZM115.266 27.4471C116.391 27.4471 117.322 27.0884 118.059 26.371C118.795 25.6341 119.164 24.587 119.164 23.2297V22.9389C119.164 21.5815 118.795 20.5441 118.059 19.8266C117.341 19.0899 116.41 18.7214 115.266 18.7214C114.142 18.7214 113.211 19.0899 112.474 19.8266C111.737 20.5441 111.369 21.5815 111.369 22.9389V23.2297C111.369 24.587 111.737 25.6341 112.474 26.371C113.211 27.0884 114.142 27.4471 115.266 27.4471Z" fill="white"/>
<path d="M124.902 30.2974V15.8709H128.568V30.2974H124.902ZM126.735 14.184C126.075 14.184 125.514 13.9707 125.048 13.544C124.602 13.1175 124.379 12.5552 124.379 11.8571C124.379 11.1591 124.602 10.5967 125.048 10.1702C125.514 9.74357 126.075 9.53027 126.735 9.53027C127.414 9.53027 127.976 9.74357 128.421 10.1702C128.868 10.5967 129.091 11.1591 129.091 11.8571C129.091 12.5552 128.868 13.1175 128.421 13.544C127.976 13.9707 127.414 14.184 126.735 14.184Z" fill="white"/>
<path d="M131.32 36.1146V15.871H134.926V17.6161H135.45C135.779 17.0539 136.292 16.5594 136.991 16.1327C137.689 15.6869 138.687 15.4639 139.987 15.4639C141.15 15.4639 142.226 15.7547 143.215 16.3364C144.205 16.8987 145 17.7325 145.6 18.8377C146.201 19.943 146.502 21.281 146.502 22.8516V23.317C146.502 24.8876 146.201 26.2255 145.6 27.3307C145 28.436 144.205 29.2795 143.215 29.8612C142.226 30.4235 141.15 30.7047 139.987 30.7047C139.115 30.7047 138.377 30.5981 137.776 30.3847C137.195 30.1909 136.72 29.9387 136.351 29.6285C136.002 29.2989 135.721 28.9692 135.507 28.6396H134.984V36.1146H131.32ZM138.881 27.5052C140.026 27.5052 140.966 27.1466 141.702 26.4291C142.459 25.6922 142.837 24.6259 142.837 23.2297V22.9389C142.837 21.5427 142.459 20.486 141.702 19.7685C140.946 19.0316 140.006 18.6632 138.881 18.6632C137.757 18.6632 136.816 19.0316 136.06 19.7685C135.304 20.486 134.926 21.5427 134.926 22.9389V23.2297C134.926 24.6259 135.304 25.6922 136.06 26.4291C136.816 27.1466 137.757 27.5052 138.881 27.5052Z" fill="white"/>
<path d="M154.55 30.7047C152.669 30.7047 151.127 30.2975 149.925 29.4831C148.724 28.6687 147.996 27.5052 147.744 25.9929L151.117 25.1202C151.254 25.799 151.476 26.3321 151.787 26.72C152.116 27.1077 152.514 27.389 152.98 27.5635C153.464 27.7186 153.987 27.7961 154.55 27.7961C155.404 27.7961 156.034 27.6507 156.44 27.3599C156.847 27.0496 157.051 26.6715 157.051 26.2255C157.051 25.7795 156.857 25.4402 156.47 25.2075C156.081 24.9555 155.461 24.7519 154.609 24.5967L153.794 24.4512C152.785 24.2574 151.865 23.9956 151.031 23.666C150.196 23.317 149.527 22.8419 149.024 22.2407C148.52 21.6397 148.267 20.8641 148.267 19.914C148.267 18.479 148.791 17.3835 149.839 16.6272C150.885 15.8516 152.262 15.4639 153.969 15.4639C155.577 15.4639 156.916 15.8225 157.982 16.54C159.049 17.2575 159.746 18.1979 160.076 19.3614L156.674 20.4084C156.519 19.6716 156.199 19.148 155.714 18.8377C155.247 18.5275 154.666 18.3724 153.969 18.3724C153.27 18.3724 152.737 18.4985 152.369 18.7505C152 18.9832 151.816 19.3129 151.816 19.7394C151.816 20.2047 152.01 20.5539 152.397 20.7865C152.785 20.9997 153.309 21.1646 153.969 21.281L154.782 21.4264C155.869 21.6202 156.847 21.8821 157.72 22.2117C158.612 22.522 159.31 22.9776 159.815 23.5787C160.337 24.1605 160.6 24.9555 160.6 25.9637C160.6 27.4762 160.047 28.6494 158.942 29.4831C157.856 30.2975 156.392 30.7047 154.55 30.7047Z" fill="white"/>
<path d="M168 30.5303C166.875 30.5303 165.886 30.2782 165.032 29.7741C164.199 29.2506 163.55 28.5331 163.084 27.6217C162.619 26.7103 162.386 25.6633 162.386 24.4805V15.8711H166.051V24.1896C166.051 25.2755 166.312 26.0898 166.836 26.6328C167.379 27.1757 168.145 27.4472 169.134 27.4472C170.259 27.4472 171.131 27.0788 171.751 26.342C172.372 25.5857 172.682 24.5386 172.682 23.2007V15.8711H176.347V30.2976H172.74V28.4071H172.217C171.985 28.8918 171.547 29.3668 170.909 29.8322C170.269 30.2976 169.299 30.5303 168 30.5303Z" fill="white"/>
<path d="M179.116 30.2978V15.8713H182.722V17.4419H183.246C183.499 16.9572 183.916 16.5403 184.497 16.1913C185.079 15.8228 185.845 15.6387 186.795 15.6387C187.822 15.6387 188.647 15.8423 189.267 16.2494C189.887 16.6373 190.362 17.151 190.692 17.791H191.216C191.546 17.1705 192.011 16.6567 192.612 16.2494C193.214 15.8423 194.066 15.6387 195.171 15.6387C196.064 15.6387 196.869 15.8325 197.586 16.2204C198.322 16.5888 198.905 17.1608 199.331 17.9364C199.777 18.6927 200 19.6524 200 20.8159V30.2978H196.335V21.0777C196.335 20.2827 196.131 19.6913 195.725 19.3034C195.317 18.8963 194.745 18.6927 194.009 18.6927C193.175 18.6927 192.525 18.964 192.06 19.507C191.614 20.0305 191.391 20.7868 191.391 21.7757V30.2978H187.726V21.0777C187.726 20.2827 187.522 19.6913 187.115 19.3034C186.707 18.8963 186.136 18.6927 185.399 18.6927C184.565 18.6927 183.915 18.964 183.45 19.507C183.004 20.0305 182.781 20.7868 182.781 21.7757V30.2978H179.116Z" fill="white"/>
<path d="M48.4761 19.3909C48.4761 14.2481 46.4331 9.31594 42.7966 5.67945C39.1601 2.04296 34.2279 6.74394e-07 29.0852 0C23.9424 -6.74392e-07 19.0103 2.04296 15.3738 5.67945C11.7373 9.31594 9.69434 14.2481 9.69434 19.3909H15.7541C17.7621 19.3909 19.3281 17.7081 20.0636 15.8396C20.5464 14.6129 21.2792 13.4855 22.2294 12.5351C24.0477 10.7169 26.5138 9.69543 29.0852 9.69543C31.6566 9.69543 34.1227 10.7169 35.9409 12.5351C37.7592 14.3534 38.7806 16.8195 38.7806 19.3909H48.4761Z" fill="url(#paint0_linear_193_215)"/>
<path d="M37.3055 26.8111C38.28 24.4585 38.7816 21.937 38.7816 19.3906H48.476C48.476 30.0999 39.7944 38.7814 29.0851 38.7814C27.408 38.7814 25.7805 38.5685 24.2285 38.1682C25.1066 37.942 25.9698 37.6539 26.8113 37.3054C29.1639 36.3309 31.3015 34.9026 33.1021 33.102C34.9028 31.3014 36.3311 29.1638 37.3055 26.8111Z" fill="url(#paint1_linear_193_215)"/>
<path d="M0 19.3906C-3.64291e-07 21.9371 0.501559 24.4586 1.47604 26.8113C2.45053 29.1639 3.87884 31.3015 5.67945 33.1021C7.48005 34.9026 9.61769 36.331 11.9703 37.3055C14.3229 38.28 16.8444 38.7815 19.3909 38.7815C21.9373 38.7815 24.4587 38.28 26.8114 37.3055C29.164 36.331 31.3016 34.9026 33.1022 33.1021C34.9029 31.3015 36.3311 29.1639 37.3056 26.8113C38.2801 24.4586 38.7817 21.9371 38.7817 19.3906H32.722C30.714 19.3906 29.148 21.0734 28.4125 22.9418C28.3916 22.995 28.3701 23.048 28.3483 23.101C27.861 24.2772 27.1469 25.3461 26.2465 26.2464C25.3463 27.1466 24.2774 27.8609 23.1011 28.3481C21.9249 28.8354 20.6641 29.0861 19.3909 29.0861C18.1176 29.0861 16.8569 28.8354 15.6806 28.3481C14.5043 27.8609 13.4355 27.1466 12.5351 26.2464C11.6348 25.3461 10.9207 24.2772 10.4334 23.101C9.9462 21.9246 9.69543 20.6639 9.69543 19.3906H0Z" fill="url(#paint2_linear_193_215)"/>
<path d="M0.00195312 19.3909C0.00195312 8.68155 8.68351 0 19.3927 0C21.0695 0 22.6965 0.212808 24.2483 0.612904C20.9185 1.47071 17.8467 3.20669 15.3738 5.67946C11.7374 9.31591 9.69443 14.2481 9.69443 19.3909H0.00195312Z" fill="url(#paint3_linear_193_215)"/>
</g>
<defs>
<linearGradient id="paint0_linear_193_215" x1="9.69434" y1="9.69544" x2="48.4761" y2="9.69544" gradientUnits="userSpaceOnUse">
<stop stop-color="#4185DD"/>
<stop offset="0.29" stop-color="#6669DC"/>
<stop offset="0.77" stop-color="#9E3FDB"/>
<stop offset="1" stop-color="#B42FDA"/>
</linearGradient>
<linearGradient id="paint1_linear_193_215" x1="24.2285" y1="29.086" x2="48.476" y2="29.086" gradientUnits="userSpaceOnUse">
<stop stop-color="#4185DD"/>
<stop offset="0.29" stop-color="#6669DC"/>
<stop offset="0.77" stop-color="#9E3FDB"/>
<stop offset="1" stop-color="#B42FDA"/>
</linearGradient>
<linearGradient id="paint2_linear_193_215" x1="0" y1="29.0861" x2="38.7817" y2="29.0861" gradientUnits="userSpaceOnUse">
<stop stop-color="#4185DD"/>
<stop offset="0.29" stop-color="#6669DC"/>
<stop offset="0.77" stop-color="#9E3FDB"/>
<stop offset="1" stop-color="#B42FDA"/>
</linearGradient>
<linearGradient id="paint3_linear_193_215" x1="0.00195312" y1="9.69544" x2="24.2483" y2="9.69544" gradientUnits="userSpaceOnUse">
<stop stop-color="#4185DD"/>
<stop offset="0.29" stop-color="#6669DC"/>
<stop offset="0.77" stop-color="#9E3FDB"/>
<stop offset="1" stop-color="#B42FDA"/>
</linearGradient>
<clipPath id="clip0_193_215">
<rect width="200" height="40" fill="white"/>
</clipPath>
</defs>
</svg>
