<svg width="40" height="40" viewBox="0 0 40 40" fill="none" xmlns="http://www.w3.org/2000/svg">
<path d="M32.8574 14.2857C32.8574 21.4 20.0002 38.5714 20.0002 38.5714C20.0002 38.5714 7.14307 21.4 7.14307 14.2857C7.14307 10.8758 8.49765 7.60554 10.9088 5.19436C13.32 2.78318 16.5903 1.42859 20.0002 1.42859C23.4101 1.42859 26.6804 2.78318 29.0916 5.19436C31.5028 7.60554 32.8574 10.8758 32.8574 14.2857V14.2857Z" stroke="#4185DD" stroke-width="1.5" stroke-linecap="round" stroke-linejoin="round"/>
<path d="M20.0001 18.5714C22.367 18.5714 24.2858 16.6526 24.2858 14.2857C24.2858 11.9188 22.367 10 20.0001 10C17.6331 10 15.7144 11.9188 15.7144 14.2857C15.7144 16.6526 17.6331 18.5714 20.0001 18.5714Z" stroke="#4185DD" stroke-width="1.5" stroke-linecap="round" stroke-linejoin="round"/>
</svg>
