<svg width="40" height="40" viewBox="0 0 40 40" fill="none" xmlns="http://www.w3.org/2000/svg">
<path d="M12.857 37.1428C19.1689 37.1428 24.2856 32.026 24.2856 25.7142C24.2856 19.4024 19.1689 14.2856 12.857 14.2856C6.54521 14.2856 1.42847 19.4024 1.42847 25.7142C1.42847 32.026 6.54521 37.1428 12.857 37.1428Z" stroke="#4185DD" stroke-width="1.5" stroke-linecap="round" stroke-linejoin="round"/>
<path d="M27.1427 37.1428C33.4545 37.1428 38.5713 32.026 38.5713 25.7142C38.5713 19.4024 33.4545 14.2856 27.1427 14.2856C20.8309 14.2856 15.7141 19.4024 15.7141 25.7142C15.7141 32.026 20.8309 37.1428 27.1427 37.1428Z" stroke="#4185DD" stroke-width="1.5" stroke-linecap="round" stroke-linejoin="round"/>
<path d="M19.9999 25.7143C26.3117 25.7143 31.4284 20.5976 31.4284 14.2857C31.4284 7.97392 26.3117 2.85718 19.9999 2.85718C13.688 2.85718 8.57129 7.97392 8.57129 14.2857C8.57129 20.5976 13.688 25.7143 19.9999 25.7143Z" stroke="#4185DD" stroke-width="1.5" stroke-linecap="round" stroke-linejoin="round"/>
</svg>
