<svg width="40" height="40" viewBox="0 0 40 40" fill="none" xmlns="http://www.w3.org/2000/svg">
<g clip-path="url(#clip0_119_1669)">
<path d="M21.3428 19.7143C20.9191 19.8983 20.462 19.9933 20 19.9933C19.538 19.9933 19.0809 19.8983 18.6571 19.7143L2.3714 12.1714C2.10695 12.038 1.88471 11.8339 1.72943 11.5816C1.57416 11.3294 1.49194 11.039 1.49194 10.7428C1.49194 10.4467 1.57416 10.1563 1.72943 9.90406C1.88471 9.65184 2.10695 9.44766 2.3714 9.31428L18.6571 1.71428C19.0809 1.53026 19.538 1.4353 20 1.4353C20.462 1.4353 20.9191 1.53026 21.3428 1.71428L37.6285 9.25713C37.893 9.39052 38.1152 9.59469 38.2705 9.84692C38.4258 10.0991 38.508 10.3895 38.508 10.6857C38.508 10.9819 38.4258 11.2723 38.2705 11.5245C38.1152 11.7767 37.893 11.9809 37.6285 12.1143L21.3428 19.7143Z" stroke="#4185DD" stroke-width="1.5" stroke-linecap="round" stroke-linejoin="round"/>
<path d="M38.5713 21L21.1428 29.0286C20.7705 29.1984 20.3662 29.2862 19.957 29.2862C19.5479 29.2862 19.1436 29.1984 18.7713 29.0286L1.42847 21" stroke="#4185DD" stroke-width="1.5" stroke-linecap="round" stroke-linejoin="round"/>
<path d="M38.5713 30.2856L21.1428 38.3142C20.7705 38.484 20.3662 38.5719 19.957 38.5719C19.5479 38.5719 19.1436 38.484 18.7713 38.3142L1.42847 30.2856" stroke="#4185DD" stroke-width="1.5" stroke-linecap="round" stroke-linejoin="round"/>
</g>
<defs>
<clipPath id="clip0_119_1669">
<rect width="40" height="40" fill="white"/>
</clipPath>
</defs>
</svg>
