<svg width="51" height="51" viewBox="0 0 51 51" fill="none" xmlns="http://www.w3.org/2000/svg">
<path d="M45.4899 6.10693L33.3113 18.2855" stroke="#4185DD" stroke-width="1.5" stroke-linecap="round" stroke-linejoin="round"/>
<path d="M6.20435 6.10693L18.3829 18.2855" stroke="#4185DD" stroke-width="1.5" stroke-linecap="round" stroke-linejoin="round"/>
<path d="M6.20435 45.3929L18.3829 33.2144" stroke="#4185DD" stroke-width="1.5" stroke-linecap="round" stroke-linejoin="round"/>
<path d="M45.4899 45.3929L33.3113 33.2144" stroke="#4185DD" stroke-width="1.5" stroke-linecap="round" stroke-linejoin="round"/>
<path d="M25.8471 48.9642C38.668 48.9642 49.0614 38.5708 49.0614 25.7499C49.0614 12.929 38.668 2.53564 25.8471 2.53564C13.0262 2.53564 2.63281 12.929 2.63281 25.7499C2.63281 38.5708 13.0262 48.9642 25.8471 48.9642Z" stroke="#4185DD" stroke-width="1.5" stroke-linecap="round" stroke-linejoin="round"/>
<path d="M25.847 36.2858C31.6657 36.2858 36.3827 31.5688 36.3827 25.7501C36.3827 19.9314 31.6657 15.2144 25.847 15.2144C20.0283 15.2144 15.3113 19.9314 15.3113 25.7501C15.3113 31.5688 20.0283 36.2858 25.847 36.2858Z" stroke="#4185DD" stroke-width="1.5" stroke-linecap="round" stroke-linejoin="round"/>
</svg>
