<svg width="50" height="50" viewBox="0 0 50 50" fill="none" xmlns="http://www.w3.org/2000/svg">
<path d="M26.6788 24.6417C26.1491 24.8717 25.5778 24.9904 25.0003 24.9904C24.4228 24.9904 23.8514 24.8717 23.3217 24.6417L2.96455 15.2131C2.63399 15.0464 2.35619 14.7912 2.1621 14.4759C1.968 14.1606 1.86523 13.7976 1.86523 13.4274C1.86523 13.0572 1.968 12.6942 2.1621 12.3789C2.35619 12.0636 2.63399 11.8084 2.96455 11.6417L23.3217 2.14169C23.8514 1.91166 24.4228 1.79297 25.0003 1.79297C25.5778 1.79297 26.1491 1.91166 26.6788 2.14169L47.036 11.5703C47.3666 11.737 47.6444 11.9922 47.8384 12.3075C48.0325 12.6228 48.1353 12.9857 48.1353 13.356C48.1353 13.7262 48.0325 14.0892 47.8384 14.4045C47.6444 14.7197 47.3666 14.975 47.036 15.1417L26.6788 24.6417Z" stroke="#4185DD" stroke-width="1.5" stroke-linecap="round" stroke-linejoin="round"/>
<path d="M48.2137 26.25L26.428 36.2857C25.9627 36.4979 25.4573 36.6078 24.9459 36.6078C24.4345 36.6078 23.929 36.4979 23.4637 36.2857L1.78516 26.25" stroke="#4185DD" stroke-width="1.5" stroke-linecap="round" stroke-linejoin="round"/>
<path d="M48.2137 37.8555L26.428 47.8912C25.9627 48.1034 25.4573 48.2132 24.9459 48.2132C24.4345 48.2132 23.929 48.1034 23.4637 47.8912L1.78516 37.8555" stroke="#4185DD" stroke-width="1.5" stroke-linecap="round" stroke-linejoin="round"/>
</svg>
