<svg width="40" height="40" viewBox="0 0 40 40" fill="none" xmlns="http://www.w3.org/2000/svg">
<g clip-path="url(#clip0_219_97)">
<path d="M25.0288 37.1428C26.7883 38.278 28.885 38.7726 30.9663 38.5437C33.0476 38.3147 34.9867 37.3761 36.4574 35.8857L37.7431 34.6286C38.3067 34.052 38.6224 33.2777 38.6224 32.4714C38.6224 31.6651 38.3067 30.8908 37.7431 30.3143L32.2859 24.9143C31.7142 24.3524 30.9447 24.0376 30.1431 24.0376C29.3415 24.0376 28.5719 24.3524 28.0002 24.9143V24.9143C27.4237 25.4779 26.6494 25.7935 25.8431 25.7935C25.0368 25.7935 24.2625 25.4779 23.6859 24.9143L15.1145 16.3428C14.8286 16.0611 14.6015 15.7252 14.4465 15.3549C14.2915 14.9846 14.2117 14.5872 14.2117 14.1857C14.2117 13.7843 14.2915 13.3868 14.4465 13.0165C14.6015 12.6462 14.8286 12.3103 15.1145 12.0286V12.0286C15.6764 11.4568 15.9912 10.6873 15.9912 9.8857C15.9912 9.0841 15.6764 8.31457 15.1145 7.74285L9.68593 2.31427C9.10938 1.7506 8.3351 1.435 7.52879 1.435C6.72248 1.435 5.9482 1.7506 5.37165 2.31427L4.11451 3.59999C2.62407 5.07068 1.68546 7.00971 1.45652 9.09104C1.22757 11.1724 1.72224 13.2691 2.85736 15.0286C8.77178 23.7449 16.2972 31.2509 25.0288 37.1428V37.1428Z" stroke="#4185DD" stroke-width="1.5" stroke-linecap="round" stroke-linejoin="round"/>
</g>
<defs>
<clipPath id="clip0_219_97">
<rect width="40" height="40" fill="white"/>
</clipPath>
</defs>
</svg>
