<svg width="50" height="50" viewBox="0 0 50 50" fill="none" xmlns="http://www.w3.org/2000/svg">
<path d="M44.6429 1.78564H5.3572C3.38475 1.78564 1.78577 3.38463 1.78577 5.35707V44.6428C1.78577 46.6152 3.38475 48.2142 5.3572 48.2142H44.6429C46.6154 48.2142 48.2143 46.6152 48.2143 44.6428V5.35707C48.2143 3.38463 46.6154 1.78564 44.6429 1.78564Z" stroke="#4185DD" stroke-width="1.5" stroke-linecap="round" stroke-linejoin="round"/>
<path d="M25 41.0713C31.9036 41.0713 37.5 35.4748 37.5 28.5713C37.5 21.6677 31.9036 16.0713 25 16.0713C18.0964 16.0713 12.5 21.6677 12.5 28.5713C12.5 35.4748 18.0964 41.0713 25 41.0713Z" stroke="#4185DD" stroke-width="1.5" stroke-linecap="round" stroke-linejoin="round"/>
<path d="M1.78577 12.5H12.5001" stroke="#4185DD" stroke-width="1.5" stroke-linecap="round" stroke-linejoin="round"/>
<path d="M37.5 12.5H48.2143" stroke="#4185DD" stroke-width="1.5" stroke-linecap="round" stroke-linejoin="round"/>
<path d="M25 28.4641V40.9641" stroke="#4185DD" stroke-width="1.5" stroke-linecap="round" stroke-linejoin="round"/>
<path d="M14.2858 22.1428L25.0001 28.4643" stroke="#4185DD" stroke-width="1.5" stroke-linecap="round" stroke-linejoin="round"/>
<path d="M35.7143 22.1428L25 28.4643" stroke="#4185DD" stroke-width="1.5" stroke-linecap="round" stroke-linejoin="round"/>
</svg>
