<svg width="176" height="50" viewBox="0 0 176 50" fill="none" xmlns="http://www.w3.org/2000/svg">
<circle cx="25" cy="25" r="24" stroke="url(#paint0_linear_293_286)" stroke-width="2"/>
<g clip-path="url(#clip0_293_286)">
<path d="M31.4286 22.5714H17.7143C16.7675 22.5714 16 23.339 16 24.2857V34.5714C16 35.5182 16.7675 36.2857 17.7143 36.2857H31.4286C32.3753 36.2857 33.1429 35.5182 33.1429 34.5714V24.2857C33.1429 23.339 32.3753 22.5714 31.4286 22.5714Z" stroke="url(#paint1_linear_293_286)" stroke-width="1.5" stroke-linecap="round" stroke-linejoin="round"/>
<path d="M30.5714 22.5714V20C30.5714 18.4087 29.9393 16.8826 28.8141 15.7574C27.6888 14.6321 26.1627 14 24.5714 14C22.9801 14 21.454 14.6321 20.3288 15.7574C19.2036 16.8826 18.5714 18.4087 18.5714 20V22.5714" stroke="url(#paint2_linear_293_286)" stroke-width="1.5" stroke-linecap="round" stroke-linejoin="round"/>
<path d="M24.5714 30.2857C25.0448 30.2857 25.4285 29.902 25.4285 29.4286C25.4285 28.9552 25.0448 28.5714 24.5714 28.5714C24.098 28.5714 23.7142 28.9552 23.7142 29.4286C23.7142 29.902 24.098 30.2857 24.5714 30.2857Z" stroke="url(#paint3_linear_293_286)" stroke-width="1.5" stroke-linecap="round" stroke-linejoin="round"/>
</g>
<path d="M81 14.06V17.45H72.27V22.82H78.96V26.15H72.27V35H68.07V14.06H81ZM86.1082 16.4C85.3682 16.4 84.7482 16.17 84.2482 15.71C83.7682 15.23 83.5282 14.64 83.5282 13.94C83.5282 13.24 83.7682 12.66 84.2482 12.2C84.7482 11.72 85.3682 11.48 86.1082 11.48C86.8482 11.48 87.4582 11.72 87.9382 12.2C88.4382 12.66 88.6882 13.24 88.6882 13.94C88.6882 14.64 88.4382 15.23 87.9382 15.71C87.4582 16.17 86.8482 16.4 86.1082 16.4ZM88.1782 18.38V35H83.9782V18.38H88.1782ZM96.5278 20.96C97.0678 20.08 97.7678 19.39 98.6278 18.89C99.5078 18.39 100.508 18.14 101.628 18.14V22.55H100.518C99.1978 22.55 98.1978 22.86 97.5178 23.48C96.8578 24.1 96.5278 25.18 96.5278 26.72V35H92.3278V18.38H96.5278V20.96ZM119.907 26.33C119.907 26.93 119.867 27.47 119.787 27.95H107.637C107.737 29.15 108.157 30.09 108.897 30.77C109.637 31.45 110.547 31.79 111.627 31.79C113.187 31.79 114.297 31.12 114.957 29.78H119.487C119.007 31.38 118.087 32.7 116.727 33.74C115.367 34.76 113.697 35.27 111.717 35.27C110.117 35.27 108.677 34.92 107.397 34.22C106.137 33.5 105.147 32.49 104.427 31.19C103.727 29.89 103.377 28.39 103.377 26.69C103.377 24.97 103.727 23.46 104.427 22.16C105.127 20.86 106.107 19.86 107.367 19.16C108.627 18.46 110.077 18.11 111.717 18.11C113.297 18.11 114.707 18.45 115.947 19.13C117.207 19.81 118.177 20.78 118.857 22.04C119.557 23.28 119.907 24.71 119.907 26.33ZM115.557 25.13C115.537 24.05 115.147 23.19 114.387 22.55C113.627 21.89 112.697 21.56 111.597 21.56C110.557 21.56 109.677 21.88 108.957 22.52C108.257 23.14 107.827 24.01 107.667 25.13H115.557ZM129.902 31.13L134.102 18.38H138.572L132.422 35H127.322L121.202 18.38H125.702L129.902 31.13ZM139.851 26.63C139.851 24.95 140.181 23.46 140.841 22.16C141.521 20.86 142.431 19.86 143.571 19.16C144.731 18.46 146.021 18.11 147.441 18.11C148.681 18.11 149.761 18.36 150.681 18.86C151.621 19.36 152.371 19.99 152.931 20.75V18.38H157.161V35H152.931V32.57C152.391 33.35 151.641 34 150.681 34.52C149.741 35.02 148.651 35.27 147.411 35.27C146.011 35.27 144.731 34.91 143.571 34.19C142.431 33.47 141.521 32.46 140.841 31.16C140.181 29.84 139.851 28.33 139.851 26.63ZM152.931 26.69C152.931 25.67 152.731 24.8 152.331 24.08C151.931 23.34 151.391 22.78 150.711 22.4C150.031 22 149.301 21.8 148.521 21.8C147.741 21.8 147.021 21.99 146.361 22.37C145.701 22.75 145.161 23.31 144.741 24.05C144.341 24.77 144.141 25.63 144.141 26.63C144.141 27.63 144.341 28.51 144.741 29.27C145.161 30.01 145.701 30.58 146.361 30.98C147.041 31.38 147.761 31.58 148.521 31.58C149.301 31.58 150.031 31.39 150.711 31.01C151.391 30.61 151.931 30.05 152.331 29.33C152.731 28.59 152.931 27.71 152.931 26.69ZM165.463 12.8V35H161.263V12.8H165.463ZM173.813 12.8V35H169.613V12.8H173.813Z" fill="white"/>
<defs>
<linearGradient id="paint0_linear_293_286" x1="0" y1="25" x2="50" y2="25" gradientUnits="userSpaceOnUse">
<stop stop-color="#4185DD"/>
<stop offset="0.29" stop-color="#6669DC"/>
<stop offset="0.77" stop-color="#9E3FDB"/>
<stop offset="1" stop-color="#B42FDA"/>
</linearGradient>
<linearGradient id="paint1_linear_293_286" x1="16" y1="29.4286" x2="33.1429" y2="29.4286" gradientUnits="userSpaceOnUse">
<stop stop-color="#4185DD"/>
<stop offset="0.29" stop-color="#6669DC"/>
<stop offset="0.77" stop-color="#9E3FDB"/>
<stop offset="1" stop-color="#B42FDA"/>
</linearGradient>
<linearGradient id="paint2_linear_293_286" x1="18.5714" y1="18.2857" x2="30.5714" y2="18.2857" gradientUnits="userSpaceOnUse">
<stop stop-color="#4185DD"/>
<stop offset="0.29" stop-color="#6669DC"/>
<stop offset="0.77" stop-color="#9E3FDB"/>
<stop offset="1" stop-color="#B42FDA"/>
</linearGradient>
<linearGradient id="paint3_linear_293_286" x1="23.7142" y1="29.4286" x2="25.4285" y2="29.4286" gradientUnits="userSpaceOnUse">
<stop stop-color="#4185DD"/>
<stop offset="0.29" stop-color="#6669DC"/>
<stop offset="0.77" stop-color="#9E3FDB"/>
<stop offset="1" stop-color="#B42FDA"/>
</linearGradient>
<clipPath id="clip0_293_286">
<rect width="24" height="24" fill="white" transform="translate(13 13)"/>
</clipPath>
</defs>
</svg>
