<svg width="120" height="120" viewBox="0 0 120 120" fill="none" xmlns="http://www.w3.org/2000/svg">
<circle cx="60" cy="60" r="60" fill="url(#paint0_linear_206_126)"/>
<path d="M64.6144 17.691L63.25 14.7585L62.5692 14.7041L62.3451 17.5098L60.901 17.3944L61.4761 10.1946L64.1786 10.4104C64.7356 10.4549 65.2021 10.5925 65.5782 10.8233C65.9548 11.0471 66.2259 11.3352 66.3915 11.6875C66.5646 12.0335 66.6346 12.4128 66.6017 12.8254C66.5638 13.2999 66.3919 13.7187 66.0861 14.0819C65.7808 14.4381 65.3508 14.6667 64.796 14.7678L66.2854 17.8245L64.6144 17.691ZM62.6557 13.621L63.8626 13.7174C64.2545 13.7487 64.5542 13.6792 64.7616 13.5089C64.9695 13.3318 65.0869 13.0747 65.1138 12.7378C65.1402 12.4077 65.0642 12.1456 64.886 11.9514C64.7083 11.7503 64.4234 11.6342 64.0314 11.6028L62.8246 11.5065L62.6557 13.621Z" fill="white"/>
<path d="M73.5089 16.4058C73.4608 16.6071 73.4041 16.785 73.3388 16.9396L69.2626 15.9658C69.2 16.3764 69.2655 16.7255 69.4593 17.0129C69.6531 17.3003 69.9311 17.4873 70.2934 17.5739C70.8168 17.6989 71.2429 17.5631 71.5717 17.1665L73.0914 17.5295C72.8022 18.0278 72.3877 18.3969 71.8481 18.6368C71.3101 18.87 70.709 18.9073 70.0447 18.7486C69.5079 18.6204 69.0529 18.3875 68.6796 18.0501C68.3146 17.7076 68.0634 17.2894 67.926 16.7956C67.7954 16.3033 67.7982 15.772 67.9344 15.2017C68.0723 14.6247 68.3107 14.1461 68.6497 13.7661C68.9888 13.3861 69.3977 13.1291 69.8765 12.9953C70.3553 12.8614 70.8698 12.8602 71.42 12.9917C71.9501 13.1183 72.3959 13.3454 72.7574 13.6729C73.1256 14.002 73.3733 14.4052 73.5004 14.8824C73.6359 15.3545 73.6387 15.8623 73.5089 16.4058ZM72.1457 15.6545C72.2255 15.2906 72.1636 14.9708 71.9599 14.6952C71.7578 14.4129 71.4723 14.2276 71.1033 14.1395C70.7544 14.0561 70.4335 14.0929 70.1406 14.25C69.8561 14.4019 69.6421 14.6593 69.4987 15.0222L72.1457 15.6545Z" fill="white"/>
<path d="M74.5517 16.8777C74.7677 16.34 75.065 15.9056 75.4434 15.5744C75.8283 15.2458 76.2481 15.0428 76.703 14.9654C77.1643 14.8905 77.6222 14.9444 78.0766 15.1271C78.4735 15.2866 78.787 15.5055 79.0171 15.7838C79.2537 16.0648 79.4127 16.3628 79.4942 16.6781L79.799 15.9196L81.1528 16.4636L79.0152 21.7829L77.6614 21.2388L77.9739 20.4611C77.7008 20.6413 77.3771 20.7529 77.003 20.7958C76.6379 20.8349 76.2569 20.7748 75.86 20.6153C75.4119 20.4352 75.0486 20.1554 74.7699 19.7757C74.4976 19.3987 74.3363 18.9584 74.2859 18.4549C74.2444 17.9475 74.333 17.4218 74.5517 16.8777ZM78.7302 18.5792C78.8614 18.2528 78.9093 17.9486 78.8739 17.6667C78.841 17.3784 78.7402 17.1297 78.5714 16.9207C78.4053 16.7052 78.1973 16.5473 77.9477 16.447C77.6981 16.3466 77.4432 16.3149 77.1831 16.3516C76.923 16.3883 76.6781 16.4981 76.4485 16.6809C76.2279 16.8599 76.0533 17.1094 75.9247 17.4295C75.7961 17.7495 75.7469 18.0569 75.7772 18.3516C75.8164 18.6424 75.9159 18.8943 76.0757 19.1072C76.2419 19.3227 76.4466 19.4793 76.6898 19.5771C76.9395 19.6774 77.1976 19.7105 77.4641 19.6763C77.7331 19.6357 77.978 19.526 78.1986 19.347C78.4218 19.1616 78.599 18.9057 78.7302 18.5792Z" fill="white"/>
<path d="M80.5724 19.3892C80.8663 18.8898 81.2251 18.5045 81.6487 18.2335C82.0782 17.966 82.5266 17.8297 82.9939 17.8245C83.4612 17.8193 83.9059 17.9409 84.3281 18.1893C84.6491 18.3783 84.9134 18.6298 85.1207 18.9439C85.3316 19.2521 85.455 19.5728 85.491 19.9062L86.8712 17.5607L88.1376 18.3059L84.2541 24.9054L82.9877 24.1602L83.4181 23.4289C83.12 23.5817 82.7876 23.6502 82.4207 23.6344C82.0538 23.6186 81.686 23.5023 81.3174 23.2854C80.9012 23.0405 80.5836 22.7095 80.3647 22.2926C80.1459 21.8756 80.049 21.4144 80.0743 20.909C80.109 20.4012 80.275 19.8946 80.5724 19.3892ZM84.4503 21.6951C84.6287 21.3919 84.7215 21.0983 84.7285 20.8142C84.7391 20.5243 84.6765 20.2634 84.5408 20.0314C84.4086 19.7936 84.2266 19.6064 83.9947 19.47C83.7629 19.3335 83.5156 19.2641 83.2529 19.2616C82.9902 19.2591 82.7317 19.3311 82.4774 19.4776C82.2326 19.6217 82.0227 19.8424 81.8477 20.1396C81.6728 20.4369 81.5783 20.7335 81.5643 21.0294C81.5597 21.3229 81.6205 21.5868 81.7468 21.8211C81.8789 22.059 82.058 22.2444 82.2839 22.3773C82.5158 22.5138 82.766 22.585 83.0347 22.591C83.3068 22.591 83.5653 22.519 83.8101 22.375C84.0585 22.2249 84.2719 21.9983 84.4503 21.6951Z" fill="white"/>
<path d="M98.2524 27.929L93.0991 32.9898L92.084 31.9562L95.4359 28.6645L90.7282 30.5756L89.9597 29.793L91.9485 25.1133L88.5966 28.405L87.5815 27.3713L92.7349 22.3105L93.8877 23.4844L91.6655 28.8864L97.1069 26.7625L98.2524 27.929Z" fill="white"/>
<path d="M95.4674 36.6692C95.162 36.2095 94.9877 35.729 94.9444 35.2277C94.9069 34.7225 95.0043 34.2396 95.2365 33.7788C95.4725 33.3238 95.8348 32.934 96.3231 32.6095C96.8115 32.285 97.3131 32.105 97.8278 32.0694C98.3464 32.0396 98.8303 32.1446 99.2796 32.3845C99.7346 32.6205 100.115 32.9683 100.42 33.428C100.726 33.8877 100.899 34.373 100.94 34.8839C100.987 35.391 100.895 35.8749 100.663 36.3357C100.434 36.8021 100.076 37.1977 99.5874 37.5222C99.099 37.8467 98.5936 38.021 98.0712 38.045C97.5527 38.0749 97.064 37.9689 96.6052 37.7271C96.1559 37.4873 95.7767 37.1346 95.4674 36.6692ZM96.5189 35.9706C96.664 36.1889 96.8512 36.3585 97.0806 36.4794C97.3196 36.6022 97.5836 36.6505 97.8725 36.6241C98.1615 36.5978 98.4582 36.4834 98.7627 36.2811C99.2166 35.9795 99.4841 35.6278 99.5651 35.2262C99.6556 34.8264 99.5863 34.4542 99.3573 34.1094C99.1282 33.7647 98.8119 33.5566 98.4083 33.4852C98.0142 33.4157 97.5903 33.5318 97.1363 33.8334C96.6824 34.135 96.4064 34.4799 96.3082 34.8682C96.2196 35.2583 96.2898 35.6258 96.5189 35.9706Z" fill="white"/>
<path d="M102.516 39.0572C102.871 39.0876 103.192 39.1968 103.479 39.3847C103.769 39.5787 104.001 39.8484 104.174 40.1938L102.814 40.8755L102.643 40.5333C102.439 40.1262 102.188 39.8658 101.892 39.752C101.599 39.6443 101.215 39.7095 100.74 39.9476L98.1869 41.2276L97.5376 39.9325L102.662 37.3633L103.312 38.6583L102.516 39.0572Z" fill="white"/>
<path d="M103.891 47.4723C103.696 47.5422 103.516 47.5921 103.351 47.622L101.936 43.6773C101.558 43.8495 101.302 44.0954 101.167 44.4148C101.033 44.7343 101.028 45.0693 101.154 45.42C101.336 45.9264 101.683 46.2088 102.195 46.267L102.722 47.7378C102.147 47.7683 101.611 47.6233 101.115 47.3029C100.625 46.9801 100.265 46.4973 100.035 45.8545C99.8484 45.335 99.7943 44.8267 99.8725 44.3296C99.9595 43.8367 100.172 43.3976 100.51 43.0125C100.851 42.6338 101.297 42.3455 101.849 42.1475C102.408 41.9471 102.939 41.8849 103.442 41.9608C103.946 42.0366 104.385 42.2384 104.759 42.5659C105.133 42.8935 105.415 43.3235 105.606 43.8559C105.79 44.3689 105.844 44.8663 105.768 45.3481C105.694 45.8364 105.492 46.2643 105.162 46.6318C104.841 47.0035 104.417 47.2837 103.891 47.4723ZM103.774 45.9203C104.122 45.788 104.356 45.5612 104.476 45.2399C104.601 44.9163 104.6 44.5759 104.472 44.2188C104.351 43.8811 104.144 43.6327 103.853 43.4735C103.57 43.3184 103.237 43.2801 102.855 43.3586L103.774 45.9203Z" fill="white"/>
<path d="M109.397 54.8181L108.543 55.4557L107.881 54.1878L107.579 55.586L106.553 55.1818L107.316 53.9509L105.933 54.3781L105.789 53.3116L107.234 53.3459L106.153 52.3748L107.061 51.6777L107.723 52.9456L108.006 51.5604L109.02 51.9558L108.271 53.216L109.665 52.7874L109.81 53.8641L108.352 53.8108L109.397 54.8181Z" fill="white"/>
<path d="M102.31 64.6241L105.243 63.2604L105.297 62.5796L102.492 62.3549L102.607 60.9108L109.807 61.4875L109.591 64.19C109.546 64.747 109.408 65.2135 109.177 65.5895C108.954 65.966 108.665 66.2371 108.313 66.4026C107.967 66.5756 107.588 66.6456 107.175 66.6125C106.701 66.5745 106.282 66.4025 105.919 66.0966C105.563 65.7913 105.334 65.3612 105.233 64.8064L102.176 66.2951L102.31 64.6241ZM106.38 62.6664L106.284 63.8732C106.252 64.2652 106.322 64.5649 106.492 64.7723C106.669 64.9802 106.926 65.0977 107.263 65.1247C107.593 65.1511 107.855 65.0753 108.05 64.897C108.251 64.7194 108.367 64.4346 108.398 64.0426L108.495 62.8358L106.38 62.6664Z" fill="white"/>
<path d="M103.593 73.5191C103.392 73.471 103.214 73.4142 103.059 73.3489L104.034 69.273C103.623 69.2102 103.274 69.2757 102.987 69.4694C102.699 69.6631 102.512 69.9411 102.426 70.3034C102.301 70.8267 102.436 71.2529 102.833 71.5818L102.469 73.1014C101.971 72.812 101.602 72.3975 101.362 71.8578C101.129 71.3198 101.092 70.7186 101.251 70.0544C101.379 69.5177 101.612 69.0627 101.95 68.6894C102.292 68.3245 102.711 68.0734 103.205 67.9362C103.697 67.8056 104.228 67.8086 104.798 67.945C105.375 68.0829 105.854 68.3215 106.234 68.6606C106.614 68.9997 106.871 69.4087 107.004 69.8876C107.138 70.3664 107.139 70.8809 107.008 71.4311C106.881 71.9611 106.654 72.4069 106.326 72.7683C105.997 73.1364 105.594 73.384 105.116 73.511C104.644 73.6464 104.137 73.6491 103.593 73.5191ZM104.345 72.1561C104.709 72.236 105.028 72.1742 105.304 71.9706C105.586 71.7686 105.772 71.4831 105.86 71.1141C105.943 70.7652 105.907 70.4443 105.75 70.1514C105.598 69.8668 105.34 69.6528 104.978 69.5093L104.345 72.1561Z" fill="white"/>
<path d="M103.121 74.5615C103.659 74.7777 104.093 75.0751 104.424 75.4536C104.753 75.8385 104.956 76.2584 105.033 76.7133C105.108 77.1746 105.054 77.6325 104.871 78.0869C104.711 78.4837 104.492 78.7972 104.214 79.0273C103.933 79.2637 103.635 79.4227 103.32 79.5041L104.078 79.8091L103.534 81.1628L98.2149 79.0239L98.7592 77.6702L99.5369 77.9829C99.3568 77.7097 99.2453 77.3861 99.2024 77.0119C99.1634 76.6468 99.2236 76.2658 99.3832 75.869C99.5634 75.4209 99.8433 75.0576 100.223 74.7791C100.6 74.5069 101.04 74.3457 101.544 74.2954C102.051 74.254 102.577 74.3427 103.121 74.5615ZM101.419 78.7396C101.745 78.8709 102.049 78.9189 102.331 78.8835C102.619 78.8507 102.868 78.75 103.077 78.5813C103.293 78.4152 103.451 78.2073 103.551 77.9577C103.651 77.708 103.683 77.4532 103.647 77.1931C103.61 76.9329 103.5 76.6881 103.317 76.4584C103.138 76.2378 102.889 76.0631 102.569 75.9344C102.249 75.8057 101.942 75.7565 101.647 75.7867C101.356 75.8258 101.104 75.9253 100.891 76.085C100.676 76.2512 100.519 76.4558 100.421 76.6991C100.321 76.9487 100.288 77.2067 100.322 77.4733C100.362 77.7423 100.472 77.9872 100.651 78.2079C100.836 78.4311 101.092 78.6084 101.419 78.7396Z" fill="white"/>
<path d="M100.608 80.5817C101.107 80.8757 101.492 81.2345 101.763 81.6582C102.031 82.0878 102.167 82.5363 102.172 83.0036C102.177 83.4709 102.055 83.9156 101.807 84.3376C101.618 84.6587 101.366 84.9228 101.052 85.1301C100.744 85.3409 100.423 85.4642 100.09 85.5001L102.435 86.8809L101.69 88.1471L95.0909 84.2621L95.8364 82.9959L96.5676 83.4264C96.4148 83.1283 96.3464 82.7958 96.3623 82.4289C96.3782 82.062 96.4946 81.6943 96.7116 81.3257C96.9566 80.9096 97.2876 80.5921 97.7046 80.3733C98.1216 80.1546 98.5828 80.0578 99.0882 80.0832C99.5961 80.118 100.103 80.2842 100.608 80.5817ZM98.3011 84.4591C98.6043 84.6376 98.8979 84.7304 99.1819 84.7375C99.4719 84.7481 99.7328 84.6856 99.9648 84.5499C100.203 84.4178 100.39 84.2358 100.526 84.004C100.663 83.7722 100.732 83.5249 100.735 83.2622C100.737 82.9995 100.666 82.741 100.519 82.4867C100.375 82.2418 100.154 82.0319 99.8572 81.8569C99.56 81.6819 99.2634 81.5873 98.9675 81.5732C98.6741 81.5685 98.4101 81.6293 98.1757 81.7555C97.9378 81.8876 97.7524 82.0666 97.6194 82.2925C97.4829 82.5243 97.4116 82.7746 97.4056 83.0432C97.4055 83.3153 97.4774 83.5738 97.6214 83.8187C97.7714 84.0671 97.998 84.2806 98.3011 84.4591Z" fill="white"/>
<path d="M92.0643 98.2597L87.0048 93.1052L88.0386 92.0903L91.3295 95.443L89.4195 90.7348L90.2023 89.9665L94.8815 91.9564L91.5906 88.6037L92.6245 87.5889L97.6841 92.7434L96.5099 93.896L91.1085 91.6725L93.2311 97.1144L92.0643 98.2597Z" fill="white"/>
<path d="M83.3247 95.4727C83.7845 95.1674 84.265 94.9931 84.7664 94.95C85.2715 94.9127 85.7545 95.0101 86.2152 95.2424C86.6701 95.4786 87.0598 95.8409 87.3842 96.3294C87.7086 96.8178 87.8885 97.3194 87.924 97.8342C87.9537 98.3527 87.8486 98.8366 87.6086 99.2858C87.3725 99.7408 87.0245 100.121 86.5648 100.426C86.1051 100.732 85.6197 100.905 85.1088 100.946C84.6017 100.993 84.1178 100.9 83.6571 100.668C83.1906 100.439 82.7952 100.081 82.4708 99.5925C82.1464 99.104 81.9722 98.5986 81.9483 98.0762C81.9186 97.5576 82.0247 97.069 82.2666 96.6102C82.5065 96.161 82.8592 95.7818 83.3247 95.4727ZM84.0231 96.5243C83.8048 96.6694 83.6351 96.8566 83.5142 97.0859C83.3913 97.3249 83.343 97.5888 83.3693 97.8778C83.3955 98.1668 83.5098 98.4635 83.7121 98.7681C84.0136 99.2221 84.3652 99.4896 84.7668 99.5707C85.1665 99.6613 85.5388 99.5921 85.8836 99.3631C86.2284 99.1341 86.4366 98.8179 86.5081 98.4143C86.5776 98.0203 86.4617 97.5963 86.1602 97.1423C85.8587 96.6883 85.5138 96.4122 85.1256 96.3139C84.7354 96.2252 84.3679 96.2953 84.0231 96.5243Z" fill="white"/>
<path d="M80.9351 102.521C80.9045 102.876 80.7953 103.197 80.6073 103.484C80.4132 103.774 80.1435 104.005 79.7981 104.178L79.1167 102.819L79.459 102.647C79.866 102.443 80.1265 102.193 80.2404 101.897C80.3481 101.603 80.283 101.219 80.0451 100.745L78.7656 98.1911L80.0608 97.5422L82.6289 102.667L81.3337 103.316L80.9351 102.521Z" fill="white"/>
<path d="M72.5193 103.894C72.4495 103.699 72.3996 103.519 72.3697 103.354L76.3148 101.94C76.1426 101.562 75.8969 101.305 75.5775 101.171C75.258 101.036 74.923 101.032 74.5723 101.157C74.0658 101.339 73.7834 101.686 73.725 102.197L72.2541 102.725C72.2238 102.149 72.3689 101.614 72.6894 101.118C73.0123 100.628 73.4952 100.268 74.1381 100.038C74.6576 99.8516 75.1659 99.7976 75.663 99.8759C76.1559 99.9631 76.5949 100.176 76.98 100.514C77.3586 100.855 77.6468 101.301 77.8446 101.853C78.0448 102.411 78.1069 102.943 78.031 103.446C77.955 103.95 77.7532 104.388 77.4255 104.762C77.0979 105.136 76.6678 105.419 76.1353 105.61C75.6223 105.793 75.1249 105.847 74.6431 105.771C74.1548 105.697 73.727 105.495 73.3595 105.165C72.9879 104.843 72.7079 104.42 72.5193 103.894ZM74.0714 103.777C74.2036 104.126 74.4303 104.359 74.7516 104.479C75.0752 104.605 75.4155 104.603 75.7727 104.475C76.1104 104.354 76.3589 104.148 76.5182 103.856C76.6733 103.574 76.7117 103.241 76.6333 102.859L74.0714 103.777Z" fill="white"/>
<path d="M65.1728 109.397L64.5355 108.544L65.8036 107.882L64.4054 107.58L64.8099 106.554L66.0406 107.317L65.6137 105.934L66.6802 105.79L66.6456 107.236L67.6169 106.154L68.3138 107.063L67.0458 107.724L68.4309 108.007L68.0353 109.021L66.7752 108.273L67.2035 109.666L66.1267 109.812L66.1804 108.353L65.1728 109.397Z" fill="white"/>
<path d="M55.3681 102.309L56.7312 105.242L57.4119 105.297L57.6373 102.491L59.0814 102.607L58.5029 109.807L55.8005 109.59C55.2435 109.545 54.7771 109.407 54.4011 109.176C54.0247 108.952 53.7537 108.664 53.5882 108.312C53.4153 107.966 53.3454 107.586 53.3786 107.174C53.4167 106.699 53.5888 106.28 53.8948 105.917C54.2002 105.561 54.6303 105.333 55.1852 105.232L53.6972 102.175L55.3681 102.309ZM57.3249 106.38L56.1181 106.283C55.7261 106.251 55.4264 106.321 55.219 106.491C55.011 106.668 54.8934 106.925 54.8664 107.262C54.8399 107.592 54.9157 107.854 55.0939 108.048C55.2715 108.25 55.5563 108.366 55.9482 108.397L57.155 108.494L57.3249 106.38Z" fill="white"/>
<path d="M46.4726 103.59C46.5208 103.389 46.5776 103.211 46.6429 103.056L50.7186 104.032C50.7815 103.621 50.7161 103.272 50.5224 102.985C50.3288 102.697 50.0509 102.51 49.6886 102.423C49.1653 102.298 48.7391 102.434 48.4101 102.83L46.8905 102.466C47.18 101.968 47.5947 101.599 48.1344 101.36C48.6725 101.127 49.2737 101.09 49.9379 101.249C50.4746 101.377 50.9295 101.61 51.3027 101.948C51.6675 102.291 51.9185 102.709 52.0556 103.203C52.186 103.695 52.183 104.226 52.0465 104.797C51.9083 105.374 51.6697 105.852 51.3304 106.232C50.9912 106.612 50.5822 106.869 50.1033 107.002C49.6244 107.136 49.1099 107.137 48.5598 107.005C48.0298 106.878 47.5841 106.651 47.2228 106.323C46.8547 105.994 46.6072 105.591 46.4803 105.113C46.3451 104.641 46.3425 104.133 46.4726 103.59ZM47.8354 104.342C47.7554 104.706 47.8172 105.026 48.0207 105.301C48.2226 105.584 48.5081 105.769 48.8771 105.857C49.226 105.941 49.5469 105.904 49.8398 105.747C50.1244 105.596 50.3385 105.338 50.4821 104.975L47.8354 104.342Z" fill="white"/>
<path d="M45.4306 103.118C45.2143 103.655 44.9168 104.09 44.5382 104.421C44.1532 104.749 43.7333 104.952 43.2783 105.029C42.817 105.104 42.3592 105.05 41.9048 104.867C41.508 104.707 41.1946 104.488 40.9646 104.209C40.7282 103.928 40.5693 103.63 40.488 103.315L40.1828 104.073L38.8292 103.529L40.9693 98.2104L42.3229 98.7551L42.01 99.5327C42.2832 99.3526 42.6069 99.2412 42.981 99.1984C43.3462 99.1595 43.7272 99.2198 44.124 99.3795C44.572 99.5598 44.9352 99.8398 45.2137 100.22C45.4858 100.597 45.6469 101.037 45.6971 101.541C45.7383 102.048 45.6495 102.574 45.4306 103.118ZM41.2528 101.414C41.1215 101.741 41.0735 102.045 41.1087 102.327C41.1415 102.615 41.2421 102.864 41.4108 103.073C41.5769 103.288 41.7847 103.446 42.0343 103.547C42.2839 103.647 42.5388 103.679 42.7989 103.643C43.059 103.606 43.3039 103.496 43.5336 103.314C43.7543 103.135 43.9291 102.885 44.0578 102.565C44.1866 102.245 44.2359 101.938 44.2058 101.643C44.1667 101.352 44.0673 101.1 43.9076 100.887C43.7415 100.672 43.5368 100.515 43.2937 100.417C43.0441 100.317 42.786 100.284 42.5195 100.318C42.2504 100.358 42.0055 100.468 41.7848 100.647C41.5615 100.832 41.3842 101.088 41.2528 101.414Z" fill="white"/>
<path d="M39.4105 100.603C39.1164 101.102 38.7574 101.488 38.3337 101.758C37.904 102.026 37.4555 102.162 36.9882 102.167C36.5209 102.172 36.0763 102.05 35.6542 101.801C35.3333 101.612 35.0692 101.361 34.862 101.046C34.6512 100.738 34.528 100.417 34.4922 100.084L33.1109 102.429L31.8448 101.683L35.7314 95.0852L36.9974 95.831L36.5667 96.5621C36.8648 96.4094 37.1973 96.3411 37.5642 96.357C37.9311 96.373 38.2988 96.4895 38.6674 96.7066C39.0834 96.9517 39.4008 97.2828 39.6195 97.6999C39.8382 98.1169 39.9348 98.5782 39.9093 99.0836C39.8744 99.5914 39.7081 100.098 39.4105 100.603ZM35.5337 98.2954C35.3551 98.5986 35.2622 98.8921 35.255 99.1761C35.2444 99.4661 35.3068 99.7271 35.4424 99.959C35.5744 100.197 35.7564 100.384 35.9882 100.521C36.22 100.657 36.4673 100.727 36.7299 100.73C36.9926 100.732 37.2511 100.66 37.5055 100.514C37.7504 100.37 37.9604 100.149 38.1355 99.8521C38.3106 99.5549 38.4052 99.2584 38.4194 98.9625C38.4241 98.669 38.3634 98.4051 38.2373 98.1707C38.1052 97.9327 37.9262 97.7473 37.7004 97.6142C37.4686 97.4776 37.2184 97.4063 36.9497 97.4002C36.6776 97.4 36.4191 97.4719 36.1742 97.6159C35.9257 97.7658 35.7122 97.9923 35.5337 98.2954Z" fill="white"/>
<path d="M21.7346 92.055L26.8902 86.9966L27.9048 88.0307L24.5514 91.3208L29.26 89.412L30.0282 90.1949L28.0372 94.8737L31.3906 91.5835L32.4052 92.6176L27.2495 97.676L26.0972 96.5016L28.3219 91.1006L22.8796 93.2221L21.7346 92.055Z" fill="white"/>
<path d="M24.524 83.3165C24.8292 83.7763 25.0033 84.2569 25.0463 84.7582C25.0836 85.2634 24.986 85.7463 24.7536 86.207C24.5173 86.6619 24.1549 87.0515 23.6664 87.3758C23.1778 87.7 22.6762 87.8798 22.1614 87.9152C21.6429 87.9447 21.159 87.8395 20.7099 87.5994C20.255 87.3632 19.8749 87.0152 19.5697 86.5554C19.2645 86.0956 19.0914 85.6102 19.0503 85.0993C19.0035 84.5921 19.0963 84.1083 19.3287 83.6476C19.5573 83.1812 19.9159 82.7859 20.4044 82.4616C20.893 82.1373 21.3984 81.9632 21.9208 81.9394C22.4394 81.9098 22.928 82.016 23.3867 82.258C23.8359 82.4981 24.215 82.8509 24.524 83.3165ZM23.4722 84.0146C23.3272 83.7962 23.1401 83.6265 22.9107 83.5055C22.6718 83.3826 22.4078 83.3342 22.1189 83.3604C21.8299 83.3867 21.5331 83.5009 21.2285 83.7031C20.7744 84.0045 20.5068 84.356 20.4257 84.7576C20.335 85.1573 20.404 85.5296 20.633 85.8744C20.8619 86.2193 21.1781 86.4275 21.5817 86.4991C21.9757 86.5688 22.3997 86.4529 22.8538 86.1515C23.3078 85.8501 23.584 85.5053 23.6824 85.1171C23.7712 84.727 23.7011 84.3595 23.4722 84.0146Z" fill="white"/>
<path d="M17.4764 80.9251C17.1216 80.8945 16.8007 80.7852 16.5137 80.5971C16.2236 80.403 15.992 80.1332 15.819 79.7877L17.1792 79.1066L17.3506 79.449C17.5545 79.8561 17.8045 80.1166 18.1008 80.2306C18.3939 80.3384 18.778 80.2734 19.2529 80.0355L21.8066 78.7567L22.4553 80.0521L17.3294 82.6189L16.6807 81.3236L17.4764 80.9251Z" fill="white"/>
<path d="M16.1055 72.5092C16.3003 72.4394 16.4803 72.3896 16.6455 72.3598L18.0587 76.3052C18.4367 76.1331 18.6931 75.8874 18.8279 75.568C18.9626 75.2486 18.9672 74.9136 18.8415 74.5629C18.6601 74.0563 18.3134 73.7738 17.8015 73.7153L17.2746 72.2443C17.85 72.2141 18.3857 72.3593 18.8816 72.68C19.371 73.003 19.7308 73.4859 19.9611 74.1289C20.1472 74.6485 20.201 75.1568 20.1226 75.6538C20.0354 76.1467 19.8226 76.5857 19.4842 76.9707C19.1434 77.3492 18.6971 77.6373 18.145 77.8351C17.5865 78.0351 17.0555 78.0971 16.5519 78.021C16.0483 77.9449 15.6096 77.743 15.2358 77.4152C14.8619 77.0875 14.5796 76.6574 14.3888 76.1248C14.2051 75.6117 14.1515 75.1143 14.2281 74.6326C14.3023 74.1443 14.5045 73.7165 14.8345 73.3492C15.1558 72.9776 15.5794 72.6977 16.1055 72.5092ZM16.2218 74.0614C15.8734 74.1935 15.6395 74.4201 15.5201 74.7414C15.3941 75.0649 15.3952 75.4053 15.5231 75.7625C15.6441 76.1002 15.8503 76.3487 16.1419 76.5081C16.4246 76.6633 16.7572 76.7017 17.1395 76.6234L16.2218 74.0614Z" fill="white"/>
<path d="M10.6032 65.1609L11.457 64.5238L12.1187 65.792L12.421 64.3938L13.4466 64.7986L12.6831 66.0291L14.0666 65.6025L14.2103 66.6691L12.7647 66.6342L13.8458 67.6057L12.9373 68.3024L12.2756 67.0342L11.9924 68.4193L10.9785 68.0234L11.7275 66.7635L10.3339 67.1915L10.1887 66.1147L11.6474 66.1687L10.6032 65.1609Z" fill="white"/>
<path d="M17.6944 55.3582L14.7609 56.7205L14.7061 57.4013L17.5116 57.6273L17.3952 59.0713L10.1958 58.4912L10.4136 55.7888C10.4584 55.2319 10.5964 54.7654 10.8274 54.3896C11.0515 54.0131 11.3398 53.7422 11.6922 53.5768C12.0383 53.404 12.4177 53.3342 12.8303 53.3675C13.3047 53.4057 13.7234 53.5779 14.0863 53.8839C14.4423 54.1895 14.6707 54.6197 14.7713 55.1745L17.8291 53.6872L17.6944 55.3582ZM13.6231 57.314L13.7203 56.1072C13.7519 55.7153 13.6826 55.4155 13.5125 55.208C13.3354 55 13.0785 54.8824 12.7415 54.8552C12.4115 54.8286 12.1493 54.9044 11.955 55.0825C11.7538 55.2601 11.6374 55.5449 11.6059 55.9368L11.5086 57.1436L13.6231 57.314Z" fill="white"/>
<path d="M16.4151 46.4626C16.6164 46.5108 16.7943 46.5676 16.9489 46.6331L15.9722 50.7085C16.3827 50.7714 16.7318 50.7061 17.0194 50.5126C17.3069 50.319 17.4941 50.0411 17.581 49.6788C17.7064 49.1556 17.5708 48.7294 17.1744 48.4003L17.5386 46.8808C18.0367 47.1704 18.4055 47.5851 18.645 48.1249C18.8778 48.6631 18.9146 49.2642 18.7555 49.9284C18.6269 50.4651 18.3937 50.92 18.056 51.293C17.7132 51.6578 17.2949 51.9087 16.8009 52.0457C16.3086 52.176 15.7773 52.1728 15.2071 52.0361C14.6301 51.8979 14.1518 51.6591 13.772 51.3198C13.3922 50.9805 13.1356 50.5714 13.002 50.0925C12.8685 49.6136 12.8677 49.0991 12.9995 48.549C13.1265 48.019 13.3539 47.5734 13.6817 47.2121C14.0111 46.8441 14.4144 46.5967 14.8917 46.4699C15.3639 46.3348 15.8717 46.3323 16.4151 46.4626ZM15.6629 47.8252C15.299 47.7451 14.9792 47.8068 14.7035 48.0103C14.421 48.2122 14.2355 48.4976 14.1471 48.8665C14.0635 49.2154 14.1001 49.5363 14.2569 49.8292C14.4086 50.1139 14.6658 50.3281 15.0287 50.4718L15.6629 47.8252Z" fill="white"/>
<path d="M16.8877 45.4207C16.3501 45.2043 15.9159 44.9067 15.585 44.528C15.2567 44.143 15.054 43.723 14.9769 43.268C14.9023 42.8067 14.9566 42.3488 15.1395 41.8945C15.2993 41.4977 15.5184 41.1844 15.7969 40.9545C16.078 40.7181 16.3762 40.5593 16.6915 40.4781L15.9332 40.1727L16.4782 38.8193L21.796 40.9606L21.251 42.314L20.4735 42.0009C20.6535 42.2742 20.7648 42.5979 20.8075 42.9721C20.8464 43.3373 20.7859 43.7182 20.6262 44.115C20.4458 44.5629 20.1657 44.9261 19.7859 45.2045C19.4086 45.4765 18.9682 45.6375 18.4647 45.6876C17.9573 45.7287 17.4316 45.6397 16.8877 45.4207ZM18.5921 41.2434C18.2658 41.1119 17.9616 41.0639 17.6797 41.0991C17.3914 41.1317 17.1427 41.2323 16.9335 41.401C16.7179 41.567 16.5598 41.7748 16.4593 42.0244C16.3588 42.2739 16.3269 42.5288 16.3634 42.7889C16.4 43.049 16.5096 43.294 16.6922 43.5237C16.871 43.7445 17.1204 43.9192 17.4404 44.0481C17.7604 44.1769 18.0677 44.2263 18.3624 44.1962C18.6533 44.1572 18.9052 44.0579 19.1183 43.8982C19.3339 43.7322 19.4906 43.5276 19.5885 43.2844C19.689 43.0349 19.7223 42.7768 19.6883 42.5103C19.6479 42.2412 19.5383 41.9962 19.3595 41.7755C19.1743 41.5522 18.9185 41.3748 18.5921 41.2434Z" fill="white"/>
<path d="M19.4036 39.4012C18.9044 39.1069 18.5194 38.7479 18.2487 38.3241C17.9815 37.8944 17.8455 37.4459 17.8406 36.9786C17.8358 36.5113 17.9577 36.0666 18.2064 35.6447C18.3955 35.3237 18.6473 35.0597 18.9615 34.8526C19.2699 34.6419 19.5907 34.5187 19.9241 34.483L17.5795 33.1011L18.3256 31.8353L24.9224 35.7233L24.1763 36.9892L23.4453 36.5584C23.5979 36.8565 23.6662 37.189 23.6501 37.5559C23.6341 37.9228 23.5175 38.2905 23.3003 38.659C23.0551 39.075 22.724 39.3923 22.3068 39.6109C21.8897 39.8295 21.4285 39.926 20.9231 39.9004C20.4153 39.8653 19.9088 39.6989 19.4036 39.4012ZM21.7122 35.5249C21.4091 35.3463 21.1156 35.2533 20.8316 35.2461C20.5416 35.2353 20.2807 35.2977 20.0486 35.4332C19.8107 35.5653 19.6234 35.7471 19.4868 35.9789C19.3502 36.2107 19.2805 36.4579 19.2779 36.7206C19.2752 36.9833 19.347 37.2418 19.4934 37.4962C19.6373 37.7412 19.8578 37.9512 20.1549 38.1264C20.4521 38.3015 20.7486 38.3962 21.0445 38.4105C21.338 38.4153 21.6019 38.3546 21.8364 38.2286C22.0743 38.0965 22.2599 37.9176 22.393 37.6918C22.5296 37.46 22.601 37.2098 22.6071 36.9412C22.6074 36.6691 22.5355 36.4105 22.3916 36.1656C22.2418 35.9171 22.0153 35.7035 21.7122 35.5249Z" fill="white"/>
<path d="M27.9558 21.7273L33.013 26.8842L31.9787 27.8985L28.6893 24.5444L30.5971 29.2534L29.814 30.0214L25.1357 28.0293L28.425 31.3835L27.3907 32.3978L22.3335 27.241L23.5082 26.089L28.9086 28.3149L26.7885 22.8721L27.9558 21.7273Z" fill="white"/>
<path d="M36.6942 24.5187C36.2344 24.8239 35.7537 24.9978 35.2523 25.0407C34.7471 25.0779 34.2643 24.9802 33.8037 24.7476C33.3488 24.5113 32.9593 24.1488 32.6351 23.6602C32.311 23.1716 32.1313 22.6699 32.0961 22.1551C32.0666 21.6365 32.172 21.1527 32.4121 20.7036C32.6485 20.2488 32.9966 19.8688 33.4565 19.5637C33.9164 19.2586 34.4018 19.0856 34.9127 19.0446C35.4199 18.9979 35.9037 19.0908 36.3643 19.3234C36.8306 19.5521 37.2259 19.9108 37.5501 20.3994C37.8742 20.888 38.0482 21.3935 38.0719 21.9159C38.1013 22.4345 37.995 22.9231 37.7529 23.3817C37.5128 23.8308 37.1599 24.2098 36.6942 24.5187ZM35.9963 23.4668C36.2148 23.3219 36.3845 23.1347 36.5055 22.9054C36.6285 22.6665 36.677 22.4026 36.6508 22.1136C36.6247 21.8246 36.5105 21.5278 36.3084 21.2232C36.0071 20.769 35.6557 20.5013 35.254 20.4201C34.8544 20.3293 34.4821 20.3983 34.1372 20.6271C33.7923 20.8559 33.584 21.1721 33.5123 21.5757C33.4425 21.9697 33.5583 22.3937 33.8596 22.8478C34.1609 23.302 34.5056 23.5783 34.8938 23.6767C35.2839 23.7656 35.6514 23.6956 35.9963 23.4668Z" fill="white"/>
<path d="M39.0873 17.4712C39.118 17.1164 39.2274 16.7955 39.4155 16.5086C39.6097 16.2185 39.8796 15.987 40.2251 15.8141L40.9058 17.1744L40.5635 17.3457C40.1563 17.5495 39.8957 17.7995 39.7817 18.0957C39.6738 18.3888 39.7387 18.7729 39.9765 19.2479L41.2547 21.8019L39.9591 22.4503L37.3935 17.3238L38.689 16.6754L39.0873 17.4712Z" fill="white"/>
<path d="M47.5033 16.1026C47.573 16.2974 47.6228 16.4774 47.6526 16.6426L43.7069 18.0549C43.8788 18.433 44.1245 18.6894 44.4439 18.8242C44.7632 18.959 45.0983 18.9637 45.449 18.8382C45.9556 18.6568 46.2382 18.3102 46.2968 17.7983L47.7679 17.2718C47.798 17.8472 47.6527 18.3828 47.3319 18.8786C47.0088 19.3679 46.5257 19.7277 45.8827 19.9578C45.3631 20.1438 44.8548 20.1975 44.3577 20.119C43.8649 20.0316 43.426 19.8187 43.041 19.4802C42.6626 19.1394 42.3746 18.6929 42.177 18.1409C41.9771 17.5823 41.9152 17.0512 41.9914 16.5477C42.0677 16.0441 42.2697 15.6055 42.5975 15.2317C42.9253 14.8579 43.3555 14.5757 43.8881 14.3851C44.4012 14.2014 44.8986 14.148 45.3804 14.2247C45.8686 14.299 46.2964 14.5013 46.6637 14.8314C47.0351 15.1528 47.315 15.5765 47.5033 16.1026ZM45.9511 16.2185C45.8191 15.8701 45.5925 15.6361 45.2713 15.5166C44.9478 15.3906 44.6074 15.3916 44.2502 15.5194C43.9124 15.6403 43.6638 15.8465 43.5044 16.1381C43.3491 16.4208 43.3106 16.7533 43.3888 17.1356L45.9511 16.2185Z" fill="white"/>
<path d="M54.8525 10.6023L55.4895 11.4563L54.2211 12.1176L55.6191 12.4203L55.2142 13.4458L53.9838 12.682L54.4101 14.0656L53.3435 14.209L53.3787 12.7634L52.4069 13.8443L51.7104 12.9357L52.9788 12.2743L51.5938 11.9908L51.9899 10.9769L53.2496 11.7263L52.822 10.3325L53.8988 10.1876L53.8444 11.6462L54.8525 10.6023Z" fill="white"/>
<path fill-rule="evenodd" clip-rule="evenodd" d="M67.5897 50.0535C64.8314 52.8118 59.7001 52.7082 56.8257 49.8339L55.6472 48.6553L53.3844 50.9181L54.5629 52.0966C56.6536 54.1873 59.4948 55.2681 62.3164 55.3269L48.3564 69.2868L50.7134 71.6439L64.6734 57.6839C64.7322 60.5054 65.813 63.3467 67.9037 65.4374L69.0822 66.6159L71.3449 64.3531L70.1664 63.1746C67.292 60.3002 67.1885 55.1688 69.9467 52.4106L71.0781 51.2792L68.7211 48.9222L67.5897 50.0535Z" fill="white"/>
<defs>
<linearGradient id="paint0_linear_206_126" x1="0" y1="60" x2="120" y2="60" gradientUnits="userSpaceOnUse">
<stop stop-color="#4185DD"/>
<stop offset="0.29" stop-color="#6669DC"/>
<stop offset="0.77" stop-color="#9E3FDB"/>
<stop offset="1" stop-color="#B42FDA"/>
</linearGradient>
</defs>
</svg>
