<svg width="30" height="30" viewBox="0 0 30 30" fill="none" xmlns="http://www.w3.org/2000/svg">
<path d="M26.4212 14.3987L23.0137 13.425C21.4792 12.9924 20.0815 12.1732 18.9541 11.0459C17.8268 9.91852 17.0076 8.52073 16.575 6.98624L15.6012 3.57874C15.5523 3.45952 15.469 3.35756 15.3619 3.2858C15.2548 3.21403 15.1289 3.17572 15 3.17572C14.8711 3.17572 14.7451 3.21403 14.6381 3.2858C14.531 3.35756 14.4477 3.45952 14.3987 3.57874L13.425 6.98624C12.9924 8.52073 12.1732 9.91852 11.0459 11.0459C9.91851 12.1732 8.52072 12.9924 6.98623 13.425L3.57873 14.3987C3.4479 14.4359 3.33274 14.5147 3.25075 14.6232C3.16875 14.7317 3.12439 14.864 3.12439 15C3.12439 15.136 3.16875 15.2683 3.25075 15.3768C3.33274 15.4853 3.4479 15.5641 3.57873 15.6012L6.98623 16.575C8.52072 17.0076 9.91851 17.8268 11.0459 18.9541C12.1732 20.0815 12.9924 21.4793 13.425 23.0137L14.3987 26.4212C14.4359 26.5521 14.5147 26.6672 14.6232 26.7492C14.7317 26.8312 14.864 26.8756 15 26.8756C15.136 26.8756 15.2683 26.8312 15.3768 26.7492C15.4853 26.6672 15.5641 26.5521 15.6012 26.4212L16.575 23.0137C17.0076 21.4793 17.8268 20.0815 18.9541 18.9541C20.0815 17.8268 21.4792 17.0076 23.0137 16.575L26.4212 15.6012C26.5521 15.5641 26.6672 15.4853 26.7492 15.3768C26.8312 15.2683 26.8756 15.136 26.8756 15C26.8756 14.864 26.8312 14.7317 26.7492 14.6232C26.6672 14.5147 26.5521 14.4359 26.4212 14.3987Z" fill="white"/>
</svg>
